<svg width="225" height="64" viewBox="0 0 225 64" fill="none" xmlns="http://www.w3.org/2000/svg">
<path d="M45.6337 3.0434C56.4879 8.16284 64 19.2034 64 32C64 49.6731 49.6731 64 32 64C28.1885 64 24.5333 63.332 21.1432 62.1094L22.8481 57.9974C25.7118 59.0055 28.7916 59.5556 32 59.5556C47.2185 59.5556 59.5556 47.2185 59.5556 32C59.5556 21.0551 53.1745 11.6005 43.9297 7.15365L45.6337 3.0434Z" fill="#74EE7E"/>
<path d="M32 0C35.9315 0 39.6968 0.710704 43.1762 2.00781L41.4731 6.11545C38.5192 5.03411 35.3284 4.44444 32 4.44444C16.7815 4.44444 4.44444 16.7815 4.44444 32C4.44444 43.0661 10.9685 52.6069 20.3793 56.9905L18.6753 61.1007C7.65488 56.0464 0 44.9178 0 32C0 14.3269 14.3269 0 32 0Z" fill="#3C8EFF"/>
<path d="M20 35.1111L37.7778 12L35.5556 28H45.3333L25.3333 53.3333L28.4444 35.1111H20Z" fill="#74EE7E"/>
<path d="M96.1641 42.2656L105.141 14.375H111.633L99.3984 48.5H95.0156L96.1641 42.2656ZM87.8672 14.375L96.7734 42.2656L97.9922 48.5H93.5859L81.3984 14.375H87.8672Z" fill="#005EFF"/>
<path d="M112.734 36.1016V35.5625C112.734 33.7344 113 32.0391 113.531 30.4766C114.062 28.8984 114.828 27.5312 115.828 26.375C116.844 25.2031 118.078 24.2969 119.531 23.6562C121 23 122.656 22.6719 124.5 22.6719C126.359 22.6719 128.016 23 129.469 23.6562C130.938 24.2969 132.18 25.2031 133.195 26.375C134.211 27.5312 134.984 28.8984 135.516 30.4766C136.047 32.0391 136.312 33.7344 136.312 35.5625V36.1016C136.312 37.9297 136.047 39.625 135.516 41.1875C134.984 42.75 134.211 44.1172 133.195 45.2891C132.18 46.4453 130.945 47.3516 129.492 48.0078C128.039 48.6484 126.391 48.9688 124.547 48.9688C122.688 48.9688 121.023 48.6484 119.555 48.0078C118.102 47.3516 116.867 46.4453 115.852 45.2891C114.836 44.1172 114.062 42.75 113.531 41.1875C113 39.625 112.734 37.9297 112.734 36.1016ZM118.383 35.5625V36.1016C118.383 37.2422 118.5 38.3203 118.734 39.3359C118.969 40.3516 119.336 41.2422 119.836 42.0078C120.336 42.7734 120.977 43.375 121.758 43.8125C122.539 44.25 123.469 44.4688 124.547 44.4688C125.594 44.4688 126.5 44.25 127.266 43.8125C128.047 43.375 128.688 42.7734 129.188 42.0078C129.688 41.2422 130.055 40.3516 130.289 39.3359C130.539 38.3203 130.664 37.2422 130.664 36.1016V35.5625C130.664 34.4375 130.539 33.375 130.289 32.375C130.055 31.3594 129.68 30.4609 129.164 29.6797C128.664 28.8984 128.023 28.2891 127.242 27.8516C126.477 27.3984 125.562 27.1719 124.5 27.1719C123.438 27.1719 122.516 27.3984 121.734 27.8516C120.969 28.2891 120.336 28.8984 119.836 29.6797C119.336 30.4609 118.969 31.3594 118.734 32.375C118.5 33.375 118.383 34.4375 118.383 35.5625Z" fill="#005EFF"/>
<path d="M147.094 12.5V48.5H141.422V12.5H147.094Z" fill="#005EFF"/>
<path d="M164.906 23.1406V27.2656H150.609V23.1406H164.906ZM154.734 16.9297H160.383V41.4922C160.383 42.2734 160.492 42.875 160.711 43.2969C160.945 43.7031 161.266 43.9766 161.672 44.1172C162.078 44.2578 162.555 44.3281 163.102 44.3281C163.492 44.3281 163.867 44.3047 164.227 44.2578C164.586 44.2109 164.875 44.1641 165.094 44.1172L165.117 48.4297C164.648 48.5703 164.102 48.6953 163.477 48.8047C162.867 48.9141 162.164 48.9688 161.367 48.9688C160.07 48.9688 158.922 48.7422 157.922 48.2891C156.922 47.8203 156.141 47.0625 155.578 46.0156C155.016 44.9688 154.734 43.5781 154.734 41.8438V16.9297Z" fill="#005EFF"/>
<path d="M196.031 31.0625V44.0938C195.547 44.7344 194.789 45.4375 193.758 46.2031C192.742 46.9531 191.391 47.6016 189.703 48.1484C188.016 48.6953 185.914 48.9688 183.398 48.9688C181.258 48.9688 179.297 48.6094 177.516 47.8906C175.734 47.1562 174.195 46.0859 172.898 44.6797C171.617 43.2734 170.625 41.5625 169.922 39.5469C169.219 37.5156 168.867 35.2031 168.867 32.6094V30.2422C168.867 27.6641 169.188 25.3672 169.828 23.3516C170.484 21.3203 171.422 19.6016 172.641 18.1953C173.859 16.7891 175.328 15.7266 177.047 15.0078C178.781 14.2734 180.742 13.9062 182.93 13.9062C185.727 13.9062 188.039 14.375 189.867 15.3125C191.711 16.2344 193.133 17.5156 194.133 19.1562C195.133 20.7969 195.766 22.6719 196.031 24.7812H190.266C190.078 23.5938 189.711 22.5312 189.164 21.5938C188.633 20.6562 187.867 19.9219 186.867 19.3906C185.883 18.8438 184.602 18.5703 183.023 18.5703C181.664 18.5703 180.469 18.8281 179.438 19.3438C178.406 19.8594 177.547 20.6172 176.859 21.6172C176.188 22.6172 175.68 23.8359 175.336 25.2734C174.992 26.7109 174.82 28.3516 174.82 30.1953V32.6094C174.82 34.4844 175.016 36.1484 175.406 37.6016C175.812 39.0547 176.391 40.2812 177.141 41.2812C177.906 42.2812 178.836 43.0391 179.93 43.5547C181.023 44.0547 182.258 44.3047 183.633 44.3047C184.977 44.3047 186.078 44.1953 186.938 43.9766C187.797 43.7422 188.477 43.4688 188.977 43.1562C189.492 42.8281 189.891 42.5156 190.172 42.2188V35.4453H183.07V31.0625H196.031Z" fill="#005EFF"/>
<path d="M200.906 36.1016V35.5625C200.906 33.7344 201.172 32.0391 201.703 30.4766C202.234 28.8984 203 27.5312 204 26.375C205.016 25.2031 206.25 24.2969 207.703 23.6562C209.172 23 210.828 22.6719 212.672 22.6719C214.531 22.6719 216.188 23 217.641 23.6562C219.109 24.2969 220.352 25.2031 221.367 26.375C222.383 27.5312 223.156 28.8984 223.688 30.4766C224.219 32.0391 224.484 33.7344 224.484 35.5625V36.1016C224.484 37.9297 224.219 39.625 223.688 41.1875C223.156 42.75 222.383 44.1172 221.367 45.2891C220.352 46.4453 219.117 47.3516 217.664 48.0078C216.211 48.6484 214.562 48.9688 212.719 48.9688C210.859 48.9688 209.195 48.6484 207.727 48.0078C206.273 47.3516 205.039 46.4453 204.023 45.2891C203.008 44.1172 202.234 42.75 201.703 41.1875C201.172 39.625 200.906 37.9297 200.906 36.1016ZM206.555 35.5625V36.1016C206.555 37.2422 206.672 38.3203 206.906 39.3359C207.141 40.3516 207.508 41.2422 208.008 42.0078C208.508 42.7734 209.148 43.375 209.93 43.8125C210.711 44.25 211.641 44.4688 212.719 44.4688C213.766 44.4688 214.672 44.25 215.438 43.8125C216.219 43.375 216.859 42.7734 217.359 42.0078C217.859 41.2422 218.227 40.3516 218.461 39.3359C218.711 38.3203 218.836 37.2422 218.836 36.1016V35.5625C218.836 34.4375 218.711 33.375 218.461 32.375C218.227 31.3594 217.852 30.4609 217.336 29.6797C216.836 28.8984 216.195 28.2891 215.414 27.8516C214.648 27.3984 213.734 27.1719 212.672 27.1719C211.609 27.1719 210.688 27.3984 209.906 27.8516C209.141 28.2891 208.508 28.8984 208.008 29.6797C207.508 30.4609 207.141 31.3594 206.906 32.375C206.672 33.375 206.555 34.4375 206.555 35.5625Z" fill="#005EFF"/>
</svg>
