<svg width="64" height="64" viewBox="0 0 64 64" fill="none" xmlns="http://www.w3.org/2000/svg">
<circle cx="32" cy="32" r="32" fill="#01AFE8"/>
<path d="M36.2832 20.5098C36.7411 20.5552 37.1717 20.7577 37.5 21.0859L44.418 28.0039C45.3856 28.011 46.7597 28.0742 47.9473 28.668C48.6638 29.0262 49.3216 29.5779 49.791 30.4043C50.2557 31.2226 50.5 32.247 50.5 33.5C50.5 34.7502 50.2571 35.7548 49.7871 36.5381C49.3095 37.334 48.6439 37.8238 47.9434 38.1123C46.8662 38.5558 45.6197 38.5305 44.8848 38.5088C44.4267 40.5082 42.6383 42 40.5 42C38.3585 42 36.5682 40.5038 36.1133 38.5H29.8867C29.4318 40.5038 27.6415 42 25.5 42C23.3561 42 21.5636 40.5004 21.1113 38.4932C20.083 38.4613 18.7082 38.2871 17.5146 37.624C16.8225 37.2395 16.1806 36.6849 15.7168 35.8984C15.253 35.1119 15 34.1495 15 33C15 30.6741 15.9919 29.1239 17.291 28.1885C18.1658 27.5587 19.1484 27.2284 20 27.0869V22.5C20 21.3954 20.8954 20.5 22 20.5H36.0859L36.2832 20.5098ZM25.5 35C24.1193 35 23 36.1193 23 37.5C23 38.8807 24.1193 40 25.5 40C26.8807 40 28 38.8807 28 37.5C28 36.1193 26.8807 35 25.5 35ZM40.5 35C39.1193 35 38 36.1193 38 37.5C38 38.8807 39.1193 40 40.5 40C41.8807 40 43 38.8807 43 37.5C43 36.1193 41.8807 35 40.5 35ZM22 29H21C20.3267 29 19.2941 29.2102 18.459 29.8115C17.6749 30.3761 17 31.3261 17 33C17 33.8504 17.1846 34.4506 17.4395 34.8828C17.6944 35.315 18.0526 35.6355 18.4854 35.876C19.2654 36.3093 20.2473 36.4598 21.1143 36.4922C21.5719 34.4922 23.3613 33 25.5 33C27.6415 33 29.4318 34.4962 29.8867 36.5H36.1133C36.5682 34.4962 38.3585 33 40.5 33C42.6435 33 44.435 34.4992 44.8877 36.5059C45.6721 36.5214 46.4741 36.554 47.1816 36.2627C47.5435 36.1137 47.8467 35.8847 48.0723 35.5088C48.3054 35.1202 48.5 34.4997 48.5 33.5C48.5 32.5033 48.3067 31.8399 48.0527 31.3926C47.8034 30.9536 47.4611 30.6612 47.0527 30.457C46.1741 30.0177 45.0442 30 44 30H43.5859L36.0859 22.5H22V29Z" fill="#F1F9FB"/>
</svg>
