<svg width="25" height="25" viewBox="0 0 25 25" fill="none" xmlns="http://www.w3.org/2000/svg">
<path fill-rule="evenodd" clip-rule="evenodd" d="M16.5 3.90283H8.5C5.73858 3.90283 3.5 6.14141 3.5 8.90283V16.9028C3.5 19.6642 5.73858 21.9028 8.5 21.9028H16.5C19.2614 21.9028 21.5 19.6642 21.5 16.9028V8.90283C21.5 6.14141 19.2614 3.90283 16.5 3.90283ZM19.75 16.9028C19.7445 18.6954 18.2926 20.1473 16.5 20.1528H8.5C6.70735 20.1473 5.25549 18.6954 5.25 16.9028V8.90283C5.25549 7.11018 6.70735 5.65832 8.5 5.65283H16.5C18.2926 5.65832 19.7445 7.11018 19.75 8.90283V16.9028ZM17.25 9.15283C17.8023 9.15283 18.25 8.70511 18.25 8.15283C18.25 7.60055 17.8023 7.15283 17.25 7.15283C16.6977 7.15283 16.25 7.60055 16.25 8.15283C16.25 8.70511 16.6977 9.15283 17.25 9.15283ZM12.5 8.40283C10.0147 8.40283 8 10.4176 8 12.9028C8 15.3881 10.0147 17.4028 12.5 17.4028C14.9853 17.4028 17 15.3881 17 12.9028C17.0027 11.7085 16.5294 10.5624 15.6849 9.71791C14.8404 8.87342 13.6943 8.40017 12.5 8.40283ZM9.75 12.9028C9.75 14.4216 10.9812 15.6528 12.5 15.6528C14.0188 15.6528 15.25 14.4216 15.25 12.9028C15.25 11.384 14.0188 10.1528 12.5 10.1528C10.9812 10.1528 9.75 11.384 9.75 12.9028Z" fill="white"/>
</svg>
