<svg width="25" height="25" viewBox="0 0 25 25" fill="none" xmlns="http://www.w3.org/2000/svg">
<path fill-rule="evenodd" clip-rule="evenodd" d="M5 3.90283C4.17157 3.90283 3.5 4.5744 3.5 5.40283V20.4028C3.5 21.2312 4.17157 21.9028 5 21.9028H20C20.8284 21.9028 21.5 21.2312 21.5 20.4028V5.40283C21.5 4.5744 20.8284 3.90283 20 3.90283H5ZM9.02076 7.90555C9.02639 8.8618 8.31061 9.45102 7.46123 9.4468C6.66107 9.44258 5.96357 8.80555 5.96779 7.90696C5.97201 7.0618 6.63998 6.38258 7.50764 6.40227C8.38795 6.42196 9.02639 7.06743 9.02076 7.90555ZM12.7797 10.6646H10.2597H10.2583V19.2244H12.9217V19.0247C12.9217 18.6448 12.9214 18.2648 12.9211 17.8847C12.9203 16.8709 12.9194 15.856 12.9246 14.8425C12.926 14.5964 12.9372 14.3405 13.0005 14.1056C13.2381 13.2281 14.0271 12.6614 14.9074 12.8007C15.4727 12.8892 15.8467 13.2169 16.0042 13.7499C16.1013 14.0831 16.1449 14.4417 16.1491 14.7891C16.1605 15.8367 16.1589 16.8843 16.1573 17.932C16.1567 18.3018 16.1561 18.6718 16.1561 19.0416V19.223H18.828V19.0177C18.828 18.5657 18.8278 18.1138 18.8275 17.6619C18.827 16.5324 18.8264 15.4029 18.8294 14.273C18.8308 13.7625 18.776 13.2591 18.6508 12.7655C18.4638 12.0314 18.0771 11.4239 17.4485 10.9852C17.0027 10.673 16.5133 10.4719 15.9663 10.4494C15.904 10.4468 15.8412 10.4435 15.7781 10.44C15.4984 10.4249 15.2141 10.4096 14.9467 10.4635C14.1817 10.6168 13.5096 10.9669 13.0019 11.5842C12.9429 11.655 12.8852 11.7269 12.7991 11.8342L12.7797 11.8585V10.6646ZM6.18164 19.2272H8.83242V10.6702H6.18164V19.2272Z" fill="white"/>
</svg>
