<svg width="48" height="48" viewBox="0 0 48 48" fill="none" xmlns="http://www.w3.org/2000/svg">
<circle cx="24" cy="24" r="24" fill="#74EE7E"/>
<path d="M33.3464 4.06762C40.7892 7.57809 45.9404 15.1487 45.9404 23.9236C45.9404 36.0423 36.1163 45.8664 23.9975 45.8664C21.384 45.8664 18.8775 45.4083 16.5529 44.57L17.722 41.7504C19.6856 42.4416 21.7975 42.8188 23.9975 42.8188C34.4331 42.8188 42.8928 34.3591 42.8928 23.9236C42.8928 16.4185 38.5172 9.93535 32.1779 6.88607L33.3464 4.06762Z" fill="#07244D"/>
<path d="M23.9975 1.98071C26.6934 1.98071 29.2753 2.46805 31.6612 3.3575L30.4934 6.17417C28.4679 5.43267 26.2799 5.02833 23.9975 5.02833C13.562 5.02833 5.10231 13.488 5.10231 23.9236C5.10231 31.5118 9.57591 38.054 16.0291 41.0599L14.8606 43.8783C7.30375 40.4125 2.05469 32.7815 2.05469 23.9236C2.05469 11.8049 11.8788 1.98071 23.9975 1.98071Z" fill="#07244D"/>
<path d="M15.7715 26.0564L27.962 10.2088L26.4382 21.1802H33.1429L19.4286 38.5517L21.562 26.0564H15.7715Z" fill="#07244D"/>
</svg>
