<svg width="191" height="178" viewBox="0 0 191 178" fill="none" xmlns="http://www.w3.org/2000/svg">
<path d="M178 89C178 138.153 138.153 178 89 178C39.8467 178 0 138.153 0 89C0 39.8467 39.8467 0 89 0C138.153 0 178 39.8467 178 89Z" fill="#F0F9FF"/>
<path d="M117.579 133.012L117.291 133.21L116.998 133.73L116.847 134.421L115.637 135.344L115.39 136.321L114.687 136.568L115.282 136.958L114.147 140.266L113.476 140.444L113.545 140.807L113.183 141.08L112.909 141.463L112.827 142.51L112.007 142.632L111.07 143.903H110.345L109.675 142.925L108.732 142.065C108.732 142.065 106.584 141.982 106.557 141.982C106.53 141.982 106.113 142.037 106.113 142.037L105.08 142.85L105.094 143.733L104.63 144.123L103.05 144.615L102.455 144.06L102.209 144.498L101.423 143.616L100.281 143.815L99.6103 143.554L98.9342 143.773L95.9868 143.733L93.9018 144.806L92.7193 143.733L90.8184 143.76L90.4218 143.993L89.6967 143.603L88.3774 143.561L87.413 144.123L86.1416 143.487L85.2458 144.048L83.3863 144.109L81.3762 144.02L80.761 144.505L79.8312 146.166L78.7165 146.276L78.58 147.11L77.2672 147.685L74.9564 147.288L73.6845 148.081L72.6865 148.013L71.8929 148.752L70.8268 148.936L70.5396 149.311L70.314 150.146L69.5416 150.946L69.3024 151.65L68.7821 152.627L67.9756 152.518L67.4764 153.161C67.4764 153.161 67.6337 153.509 67.7432 153.509C67.853 153.509 67.7499 154.392 67.7499 154.392L67.1069 154.48L65.528 155.342L64.5571 154.398L63.825 154.411L61.2548 152.088L60.7558 152.423L60.3321 151.95L59.6278 152.423L59.3406 151.028L58.9438 150.549L58.568 150.529C58.568 150.529 58.3148 149.927 58.3283 149.893C58.3356 149.865 58.3971 149.311 58.3971 149.311L58.1848 148.853L57.7267 148.99L57.0637 147.815L56.9956 147.206L57.2554 146.372L56.756 145.182L55.7238 145.121L54.9033 143.111L55.7444 142.522L55.0127 140.902L54.9921 139.959L54.2469 139.316C54.2469 139.316 53.3646 138.659 53.3034 138.619C53.2418 138.585 51.9634 137.805 51.9634 137.805C51.9634 137.805 49.6458 136.342 49.6111 136.329C49.5837 136.321 49.0643 135.905 49.0643 135.905C49.0643 135.905 48.6467 136.13 48.6202 136.13C48.5927 136.13 47.1632 135.139 47.1632 135.139L44.7364 135.207L43.6701 135.186L42.7333 135.857L42.3368 134.612L41.9334 133.594L41.81 133.265L42.2065 132.903L41.8445 131.761C41.8445 131.761 41.9128 130.319 41.8994 130.284C41.8918 130.257 41.1881 129.409 41.1881 129.409C41.1881 129.409 42.2063 127.932 42.2063 127.905C42.2063 127.871 42.4046 125.949 42.4046 125.949L43.9778 125.225L44.3398 123.269L45.4473 122.319L46.2611 122.668L47.1085 121.649L47.7653 122.142L48.3941 121.82C48.3941 121.82 48.5305 120.46 48.5513 120.432C48.5721 120.405 49.1184 119.222 49.1184 119.222L51.0808 120.124L50.7253 120.76L52.469 120.781L53.5833 121.526L53.6582 122.161L55.1153 122.442L55.7094 121.718L56.5575 121.895L56.9473 122.832L58.7451 123.694L60.5024 122.791L61.3225 123.187L61.4595 122.196L62.3479 121.615L62.0336 121.075L62.704 120.692L62.8683 119.81L64.7003 119.543L65.0901 120.165L64.2082 120.856L64.7134 121.615L67.1413 120.254L67.4834 119.167L66.2518 117.027L66.5593 115.66L67.4284 115.735L68.7683 114.791L69.2124 113.8L70.2516 113.841L70.1763 112.932L71.8583 112.248L71.845 111.325L73.472 110.969L73.7798 111.195L74.2444 111.948L75.4957 111.796L75.8652 112.241L76.0766 113.554L77.9711 113.8L77.9297 114.354L78.2648 114.169L78.9823 114.524L79.0981 115.4L79.4949 115.181L80.1381 115.317L80.8352 116.645L81.2318 116.542L81.7927 116.645L82.7019 117.479L83.4062 116.802L86.4284 116.924L87.5153 117.554L88.0349 117.356L88.862 117.431L89.0331 116.48L90.38 116.213L92.2465 116.945L92.4448 115.728L92.6635 116.104L92.7591 115.818L93.3542 116.836L94.9673 116.405C94.9673 116.405 95.0154 115.393 95.0428 115.393C95.0702 115.4 95.918 115.428 95.918 115.428L96.3006 115.926L96.6839 115.755L97.5725 115.728L98.0984 116.234L98.7966 115.359L99.043 115.489L99.7263 116.412L100.485 115.352L101.436 115.817L102.816 114.45L103.46 115.297L104.669 114.559L105.278 115.181L105.223 116.658L106.311 116.582V118.388H107.117L107.356 118.825L106.816 119.318L106.912 119.906L105.524 121.395L105.674 121.991L106.385 121.93L107.09 122.695L108.143 122.613L108.642 122.92L109.312 124.37L111.479 125.088H113.325L112.553 126.018V128.519L112.409 128.876L113.147 129.491L114.693 131.932L115.985 131.85L117.579 133.012Z" fill="#00D7E1"/>
<path d="M129.577 129.025L129.133 129.614H128.168L126.938 130.222L125.687 129.737C125.687 129.737 124.647 130.017 124.579 130.017C124.511 130.017 124.408 130.222 124.408 130.222L124.21 130.551H123.622L123.355 129.956L121.372 130.256L120.675 131.022L120.121 130.94L119.437 131.555L119.54 132.41L118.583 132.3L117.579 133.012L115.985 131.85L114.693 131.932L113.147 129.491L112.409 128.876L112.553 128.519V126.018L113.325 125.088H111.479L109.312 124.37L108.642 122.92L108.143 122.613L108.143 122.188L109.77 120.999L109.633 119.973C109.633 119.973 110.584 119.338 110.584 119.296C110.576 119.269 111.226 119.289 111.226 119.289L111.704 118.053L112.443 118.524L113.64 118.394L114.911 117.006L116.408 116.74L116.518 117.752L116.866 118.011L117.818 117.95C117.818 117.95 118.453 116.787 118.487 116.787C118.514 116.787 119.266 116.74 119.266 116.74L119.006 113.657L119.697 112.918L119.635 111.967L120.339 111.338L120.955 112.261L121.721 110.778L122.979 110.566L123.594 111.024L123.444 111.578L123.696 111.81L124.325 111.578L125.071 112.528L125.248 113.157L124.914 114.9L124.079 115.481L124.203 117.287L125.248 117.403L125.727 117.799V118.675L125.194 119.987L124.906 121.177L125.727 122.045L125.967 122.695L127.655 124.868L128.647 125.121L128.709 125.505L128.237 125.997L128.189 126.674L127.525 127.042L128.784 128.67L129.33 128.595L129.577 129.025Z" fill="#00D2AA"/>
<path d="M78.8996 104.104L78.3527 104.447L77.7854 103.852L76.9379 103.646L75.8777 105.13L76.2542 106.012L75.8983 106.444L74.7499 106.163L74.9547 107.366L76.1447 107.605L76.2062 108.856L75.0436 108.734L74.3601 110.983L73.7798 111.195L73.472 110.969L71.845 111.325L71.8583 112.248L70.1763 112.932L70.2516 113.841L69.2124 113.8L68.7683 114.791L67.4284 115.735L66.5593 115.66L66.2518 117.027L67.4834 119.167L67.1413 120.254L64.7134 121.615L64.2082 120.856L65.0901 120.165L64.7003 119.543L62.8683 119.81L62.704 120.692L62.0336 121.075L62.3479 121.615L61.4595 122.196L61.3225 123.187L60.5024 122.791L58.7451 123.694L56.9473 122.832L56.5575 121.895L55.7094 121.718L55.1153 122.442L53.6582 122.161L53.5833 121.526L52.469 120.781L50.7253 120.76L51.0808 120.124L49.1184 119.222L48.9405 118.784L47.4975 119.16L46.3351 117.396L45.3714 117.048L44.2294 114.763L45.2964 112.582C45.2964 112.582 44.8451 111.844 44.8451 111.79C44.8656 111.749 45.3169 110.504 45.3169 110.504C45.3169 110.504 46.9101 109.834 46.9444 109.834C46.9718 109.834 47.8055 108.658 47.8055 108.658L48.5236 108.603L48.2638 107.092L49.5354 105.636L48.5507 104.392L47.9215 104.699L47.2717 104.536L47.231 103.304L46.0618 103.182L45.5555 102.471L46.1504 101.582C46.1504 101.582 45.0837 100.782 45.0837 100.755C45.0837 100.72 44.9401 99.968 44.9475 99.9209C44.9541 99.8656 45.4669 99.0175 45.4669 99.0175L45.0298 98.2926L44.3594 98.3064C44.3594 98.3064 44.1545 97.4042 44.127 97.4042C44.0926 97.4042 43.1629 96.7412 43.0806 96.6931C43.0049 96.6454 42.7258 94.9769 42.7258 94.9769L45.3231 95.7425L46.0478 95.1542C46.0478 95.1542 47.4085 95.7498 47.4356 95.7498C47.4698 95.7498 48.0033 95.2368 48.0033 95.2368L49.2338 95.2919C49.2338 95.2919 49.6236 92.7891 49.6512 92.7891C49.6783 92.7891 50.5466 92.4956 50.5466 92.4956L51.1283 89.5486L50.3142 88.2356L49.9176 88.2767L49.1725 87.1551L49.6098 86.0756L50.8751 86.0071L51.4013 85.5488L51.7847 86.2325L52.646 86.2809L52.9946 85.9388L53.2542 85.8847L53.5895 86.4104L54.9023 85.8086L55.0524 84.8105L55.9145 84.3249L56.5291 84.4067L56.8371 83.9077L57.5482 83.8734L57.876 82.93L58.8815 82.9716L59.2168 82.4518L60.5567 83.1077L61.151 84.0383L61.2606 84.6873L61.151 85.023H61.7874L62.2039 85.8637L62.9772 85.8974L63.8658 84.8924L64.6042 84.886L64.5082 85.8567H65.5885L66.9085 87.2853L68.2683 87.3468L68.8908 86.5886L69.6362 86.4993L69.8144 86.1651L70.0873 85.9456L70.1423 86.6223L69.8761 86.95L70.0197 87.2443L69.7459 88.0305L70.067 88.2977L70.1764 88.7963L69.541 89.1446L69.7599 91.2168L69.2125 92.1945L70.6419 92.8649L70.0746 93.8491L71.086 94.3825L71.8586 93.7469L72.3646 94.2052L72.1326 94.9774L72.6518 95.3672L71.7564 97.6301L73.4382 99.3736L75.701 101.056L77.7245 99.7296L78.3062 99.7154L78.4426 100.475L77.5065 102.095L77.8134 103.347L78.8996 104.104Z" fill="#00AAE1"/>
<path d="M142.841 81.7957L142.801 81.9533L142.103 83.0059L141.986 84.0387L140.934 85.6585L139.443 86.7397L139.143 88.5233L137.925 89.1803L137.098 90.8076L136.92 91.6693L135.642 93.0635L134.61 95.7982L133.687 96.8722L133.399 99.5928L132.832 100.393L132.914 101.507H133.331C133.331 101.507 133.215 100.523 133.27 100.481C133.331 100.448 133.556 100.427 133.556 100.427L133.734 100.673L133.66 101.603L134.426 102.095L134.521 102.827L134.821 103.094L134.582 103.976L135.635 106.484L136.34 106.615L137.317 108.296L138.917 108.802H140.195L140.366 108.98L140.298 109.384L140.586 109.951L140.845 110.217L140.086 110.628L139.963 111.284L139.553 111.216L139.067 111.284L139.094 111.988L138.384 112.098L137.31 112.892L137.57 113.924L134.426 114.546L132.477 116.439L132.238 117.137L131.834 117.377C131.834 117.377 131.594 117.11 131.546 117.131C131.492 117.144 131.294 117.575 131.294 117.575L131.991 119.249L131.594 119.66L130.877 119.598L129.592 120.782C129.592 120.782 129.975 122.696 130.009 122.702C130.009 122.744 129.092 123.797 129.092 123.797L128.614 124.924L128.649 125.123L127.657 124.869L125.968 122.696L125.729 122.046L124.908 121.178L125.195 119.988L125.729 118.676V117.801L125.249 117.404L124.204 117.288L124.081 115.483L124.915 114.901L125.249 113.158L125.072 112.529L125.968 112.132L126.275 111.272L125.831 110.362L126.057 109.439L125.619 107.442L124.928 107.73L123.677 107.702L121.544 106.102L121.701 104.81L122.809 103.559L122.898 101.733L122.406 101.269L120.491 101.063L118.277 99.4222L118.584 97.6382L120.082 95.4852L120.744 95.9632L121.367 95.5596L121.155 94.548L122.235 93.3519L122.105 91.3959L122.713 91.0612L122.857 90.7052L122.502 90.3915L121.477 90.5559L121.08 90.2337C121.08 90.2337 120.094 90.33 120.068 90.33C120.047 90.33 119.22 89.3593 119.206 89.2357C119.193 89.1195 119.042 88.3265 119.042 88.3265L119.028 88.2376L120.259 88.3538L120.67 87.0623H121.052L121.401 88.3538L122.434 88.8257L123.145 88.7229L123.309 89.2079L123.678 89.7353L122.625 90.2884L123.008 90.4867L122.892 91.103L123.378 91.2122L124.225 90.611C124.225 90.611 125.702 91.1089 125.722 91.1089C125.722 91.1433 125.326 92.1761 125.326 92.1761L126.085 92.7441L127.13 92.1965L126.59 91.5613L127.014 90.3234L128.546 89.2562C128.546 89.2562 129.544 89.2836 129.544 89.2707C129.544 89.2503 129.572 89.0174 129.572 88.9967C129.572 88.9699 129.216 88.5517 129.216 88.5517L129.523 88.2175L130.009 86.5287C130.009 86.5287 131.301 86.4943 131.315 86.4943C131.336 86.4943 132.293 85.8717 132.293 85.8717L131.882 85.2772L133.496 83.9034L132.436 82.6869L133.099 81.6808L133.059 80.4234L131.896 80.2109L132.218 78.9127L132.942 79.582L133.701 78.7687L133.824 77.777L134.809 76.6013L134.897 77.8655L136.942 78.3586L137.099 78.7821L137.817 78.215L138.48 78.2214L138.699 78.2283L139.58 78.3586L140.107 78.8987L139.827 79.5066L140.162 79.5477L140.908 80.1977L141.646 79.9171L142.275 80.8745L142.74 81.292L142.678 81.7773L142.841 81.7957Z" fill="#00AAE1"/>
<path d="M144.509 51.0221L144.618 52.643L144.215 54.2633L144.058 57.176L142.998 57.9204L143.142 59.4185L141.815 60.6009L141.522 60.929L141.706 61.0865L141.617 61.4486L140.968 61.3459L139.771 62.7755L140.496 64.1837L140.817 64.163L141.118 63.8283L141.419 63.8968L141.235 64.1903L141.118 64.8333L140.182 65.3801L140.524 66.187L140.216 67.5134L141.118 69.1343L140.092 70.2549L140.038 71.0967L139.094 71.6708L138.91 72.5318L139.765 73.2022L140.182 74.1595L139.347 75.376L139.895 76.0459L139.75 77.1131L138.787 77.6533L138.479 78.2204L137.816 78.214L137.097 78.7811L136.941 78.3576L134.896 77.8645L134.808 76.6003L133.822 77.7761L133.7 78.7678L132.941 79.5811L132.216 78.9118L131.895 80.2099L133.057 80.4224L133.098 81.6798L132.435 82.6859L133.495 83.9024L131.881 85.2763L132.292 85.8707C132.292 85.8707 131.334 86.4934 131.313 86.4934C131.3 86.4934 130.008 86.5277 130.008 86.5277L129.522 88.2165L129.215 88.5508C129.215 88.5508 129.571 88.9688 129.571 88.9957C129.571 89.0167 129.543 89.2495 129.543 89.2697C129.543 89.2826 128.545 89.2553 128.545 89.2553L127.013 90.3225L126.589 91.5604L127.129 92.1955L126.084 92.7431L125.325 92.1752C125.325 92.1752 125.721 91.1423 125.721 91.108C125.7 91.108 124.223 90.61 124.223 90.61L123.376 91.2113L122.891 91.1021L123.007 90.4858L122.623 90.2875L123.676 89.7344L123.307 89.2069L123.143 88.7219L122.433 88.8248L121.4 88.3529L121.051 87.0613H120.668L120.258 88.3529L119.027 88.2367L118.945 87.6151L118.097 87.1364L117.633 87.4785L116.094 85.6798L115.465 85.8438L115.281 85.7687L115.602 85.1191L114.385 84.0178L114.987 82.979L115.711 82.5962L115.588 81.5975L115.786 80.9486L116.805 81.3931L117.435 80.8256L117.4 80.183L117.701 79.5741L117.291 78.5417L117.619 77.6255L116.758 76.4565L116.812 75.1232L115.486 74.3777L114.549 72.9962L113.298 72.2385L112.772 72.3539L112.327 71.766L111.049 71.9581L110.762 71.4517L110.064 71.5335L109.675 70.0503L110.208 68.3471H111.411L112.457 66.8504L112.047 66.7819L111.521 64.9705L112.628 64.8469L113.08 63.9789L114.043 63.6228L114.468 62.5774L113.421 61.3733L113.886 60.6766L113.654 60.0811H114.529L115.124 59.0289L116.245 58.9808L116.785 59.9381L117.285 59.8215L117.934 60.0609L118.753 59.4597L119.164 58.4339L119.875 57.8256L119.718 57.5047L119.806 57.0464L119.643 56.8072L119.301 57.039L119.103 57.0191L118.843 56.3353L118.925 55.0427L118.474 54.9405L118.549 54.0103L119.608 52.2948L119.021 51.5833L120.203 50.5375L119.779 50.0247L120.203 48.8827L121.188 48.5137L121.625 47.8433L122.883 47.8026L122.794 47.0433L122.973 46.9072H123.512L124.039 46.7428L124.258 46.1076L125.516 45.8881L125.037 44.8964L125.42 43.4887L126.295 43.2899L127.177 44.2475L127.861 44.2131L127.943 44.9032L128.613 45.3208L129.379 44.6027L130.363 45.0674L131.306 44.1786L132.722 45.1492L133.624 45.1289L133.953 45.5728L133.83 45.84L134.411 45.9015L135.176 46.7835C135.176 46.7835 136.058 46.1201 136.086 46.1136C136.12 46.0996 137.754 45.5942 137.754 45.5942L139.128 46.4414L139.853 45.6553L140.468 46.4215L141.316 46.0932L143.442 46.0996L143.852 47.6791L144.071 47.6991L144.571 47.4743L144.618 48.5474L143.743 49.8048L144.509 51.0221Z" fill="#00D7E1"/>
<path d="M125.42 43.4887L125.037 44.8964L125.516 45.8881L124.258 46.1076L124.039 46.7428L123.512 46.9072H122.973L122.794 47.0433L122.883 47.8026L121.625 47.8433L121.188 48.5137L120.203 48.8827L119.779 50.0247L120.203 50.5375L119.021 51.5833L119.608 52.2948L118.549 54.0103L118.474 54.9405L118.925 55.0427L118.843 56.3353L119.103 57.0191L119.301 57.039L119.643 56.8072L119.806 57.0464L119.718 57.5047L119.875 57.8256L119.164 58.4339L118.753 59.4597L117.934 60.0609L117.285 59.8215L116.785 59.9381L116.245 58.9808L115.124 59.0289L114.419 58.2835L113.284 58.3723L112.396 57.422L113.326 56.3351L115.124 56.4373V55.0361L113.545 54.2084L112.752 54.1265L112.109 52.8349L111.392 52.5951L111.152 52.3011H110.27L110.086 51.1114L108.875 51.7336L108.11 50.8582L106.756 51.105L106.161 50.8658L106.797 49.7585L106.599 49.2455L106.578 48.7395L106.331 48.6441L106.093 48.815L106.298 49.0875L106.127 49.3344L105.935 49.2792L105.901 48.8076L105.491 48.4044L105.928 48.0494L106.038 47.8235H106.331L106.523 47.6522L106.797 47.9739L107.077 48.302C107.077 48.302 107.337 48.3427 107.337 48.302C107.337 48.2543 107.241 47.8984 107.241 47.8984L107.699 47.5563L107.241 46.7708L107.494 46.4965L107.699 46.6335L108.116 46.2985L107.932 45.3481L108.506 44.938L108.923 44.5552L108.656 43.3039L109.826 43.359L110.667 41.9235L110.769 41.438L111.528 41.0001L111.999 40.0091L111.712 39.667L114.406 37.3222L114.823 37.7672L116.061 38.2244L116.601 37.4109L118.078 37.8558L118.584 38.6959L117.744 40.9117L118.427 41.1509L119.268 40.4054L121.961 41.7725L121.996 42.0053L122.973 41.8272C122.973 41.8272 123.486 42.6753 123.513 42.6753C123.548 42.6753 124.867 42.4087 124.867 42.4087C124.867 42.4087 125.12 42.887 125.155 42.887C125.175 42.8602 125.701 42.2995 125.701 42.2995L126.406 42.3542L126.296 43.2905L125.42 43.4887Z" fill="#8CD26E"/>
<path d="M97.1761 36.6239L96.5541 37.6493L95.0157 37.8126L94.4897 38.1895L94.277 39.3856V40.1856L93.0257 40.1994L91.5906 39.5018L90.5991 40.8282L89.7239 40.8893L89.396 40.6712L89.6834 41.6148L89.5462 42.5791L87.7624 42.6949L87.3859 43.3239L88.0697 44.1169L89.0883 43.3517L89.3896 43.6934L88.9587 44.3835L89.6151 44.9302L89.396 45.675L88.0353 45.6277L87.7624 46.5299L86.9966 45.7026L86.2102 46.366L85.0681 45.4358L85.0344 44.6295L84.515 44.4859L84.4253 42.9818L83.1742 42.9333L82.5524 41.6761L81.8823 41.4983L79.8582 41.9354L78.5325 42.0451L77.7249 40.7118L77.4312 40.7457L78.2038 38.7772L78.7299 38.1271L79.4756 38.223L79.6395 38.0249L79.4137 37.5944L79.4552 37.3075C79.4552 37.3075 79.7903 37.3272 79.8105 37.3075C79.8313 37.2865 80.7608 36.8763 80.7608 36.8763L80.6374 36.5346L80.7807 35.892L82.5107 35.8305L83.3723 36.0286C83.3723 36.0286 85.1708 35.8986 85.1981 35.8986C85.2325 35.8986 86.2034 35.0987 86.2034 35.0987L86.8871 35.6935L87.9189 34.8599L90.8929 34.7907L91.9664 34.2033L94.0242 34.9277L94.2026 35.7888C94.2026 35.7888 95.9666 35.5903 95.9933 35.5903C96.0277 35.5903 96.7935 36.1378 96.7935 36.1378L97.1761 36.6239Z" fill="#00D7E1"/>
<path d="M114.407 37.321L114.366 36.166L113.983 35.7211L113.026 35.673L112.054 36.9997L111.324 36.6511L109.423 37.8126L108.342 37.1293L107.351 37.7927L104.897 35.9597L103.126 36.1996L102.127 34.9483L101.499 35.495L99.3785 35.4817L98.4629 36.8625L97.1773 36.6237L96.5553 37.6491L95.0168 37.8124L94.4909 38.1893L94.2782 39.3854V40.1854L94.6069 40.1779L95.5021 39.5016L97.0403 39.4876L97.5465 40.2469L97.8405 40.6907L97.5673 41.2519L98.0996 42.1889L98.9687 42.1337L99.0366 42.455L98.8593 42.6945L99.1257 43.111L99.652 43.2003L99.5973 43.7884L99.0644 44.1027L97.9017 43.9661L97.7174 43.4119L97.3077 43.2208L96.4259 43.3027L95.9875 44.4925L96.7739 44.9574L97.4159 44.3559L97.9291 46.4277L98.907 46.1333L99.8781 46.6601L100.821 48.0272V48.5746L101.963 49.0125L102.626 48.3629L103.501 49.3675L103.105 49.9143L103.611 50.4277H104.774L105.224 50.0383L105.901 50.7558L106.161 50.8658L106.797 49.7585L106.599 49.2455L106.578 48.7395L106.331 48.6441L106.093 48.815L106.298 49.0875L106.127 49.3344L105.935 49.2792L105.901 48.8076L105.491 48.4044L105.928 48.0494L106.038 47.8235H106.331L106.523 47.6522L106.797 47.9739L107.077 48.302C107.077 48.302 107.337 48.3427 107.337 48.302C107.337 48.2543 107.241 47.8984 107.241 47.8984L107.699 47.5563L107.241 46.7708L107.494 46.4965L107.699 46.6335L108.116 46.2985L107.932 45.3481L108.506 44.938L108.923 44.5552L108.656 43.3039L109.826 43.359L110.667 41.9235L110.769 41.438L111.528 41.0001L111.999 40.0091L111.712 39.667L114.407 37.321ZM105.183 48.0134L103.892 48.1163L103.379 47.3303L102.832 47.8978L101.991 47.8427L101.32 46.8173L101.369 45.9015L102.155 45.5594L102.914 46.0932L103.297 45.8814L103.926 45.9766L104.069 46.2913H104.377L104.603 46.8376L105.184 47.2484L105.101 47.5835L105.321 47.7617L105.183 48.0134Z" fill="#0082D2"/>
<path d="M114.529 60.0811H113.654L113.886 60.6766L113.421 61.3733L114.468 62.5774L114.043 63.6228L113.08 63.9789L112.628 64.8469L111.521 64.9705L112.047 66.7819L112.457 66.8504L111.411 68.3471H110.208L109.675 70.0503L110.064 71.5335L110.762 71.4517L111.049 71.9581L111.125 73.1264L110.885 73.2767L110.064 72.5179L109.477 73.236L108.718 72.8188L108.519 73.373L107.569 73.5713L107.323 73.0106L106.373 73.4345L105.49 72.2988L104.8 72.2855L105.018 71.4721L103.309 70.3235L101.642 70.6993L100.677 69.3178L99.8501 70.1655L98.3051 70.3027L97.1635 69.4614L96.1718 70.4397L94.1549 71.1508L93.1293 72.3947L92.0214 72.3332L91.3105 73.4415L90.7572 73.5711L89.9846 74.7808L89.5191 74.8423L88.4937 75.3964L87.7552 76.8254V77.4473L86.6749 78.138L86.1971 78.2546L85.1024 79.56L85.0205 80.8248L84.2547 81.112L83.7493 80.736L83.5578 80.797L83.4414 81.386L82.9421 82.1444L83.2367 83.7169L82.0054 84.4206L81.2194 85.8362L80.4264 85.8979L79.8725 86.5955L79.9957 86.882L79.7698 87.0667L79.8928 87.1764L79.5037 87.518L78.4978 87.4839L78.3618 87.0608L78.4639 86.7942L78.2658 86.3219L76.8845 86.4248L76.7685 87.2922L76.2559 87.5872L75.893 87.5657L75.5645 87.7575V88.1403L75.3323 88.6603L74.3406 88.9546L74.2728 88.4145L74.0197 88.3116L73.9788 87.9214L73.5619 88.3048L72.4476 89.3917L71.6958 88.694L70.8818 89.2689L70.1764 88.7963L70.067 88.2977L69.7459 88.0305L70.0197 87.2443L69.8761 86.95L70.1423 86.6223L70.0873 85.9456L69.8144 86.1651L69.6362 86.4993L68.8908 86.5886L68.2683 87.3468L66.9085 87.2853L65.5885 85.8567H64.5082L64.6042 84.886L63.8658 84.8924L62.9772 85.8974L62.2039 85.8637L61.7874 85.023H61.151L61.2606 84.6873L61.151 84.0383L60.5567 83.1077L59.2168 82.4518L58.8815 82.9716L57.876 82.93L57.5482 83.8734L56.8371 83.9077L56.5291 84.4067L55.9145 84.3249L55.0524 84.8105L54.9023 85.8086L53.5895 86.4104L53.2542 85.8847L52.9957 85.9391L52.6471 86.2812L51.7858 86.2328L51.4024 85.5491L52.1338 84.9198L52.3116 84.2499L51.5597 83.2241L52.3184 82.0824L51.7235 80.8515L52.558 79.5873L51.8944 78.2813L52.442 76.435L51.8265 75.9915L51.8745 75.3551L50.8896 73.5019C50.8896 73.5019 52.0929 73.5293 52.1201 73.5507C52.189 73.5507 53.0502 72.9961 53.0502 72.9961L52.955 71.9434L54.9511 69.9611L56.0993 69.9195L57.8765 68.2307L58.8209 68.1427L58.9645 66.3924L60.2291 65.4892L60.2696 64.7647L58.7248 63.1309L57.4534 63.0142L56.6189 63.7465L55.6281 62.666L55.6754 61.7225L56.2225 60.6489L55.6548 59.9444L56.0514 59.049L55.4771 58.4675L53.9664 59.0424L53.2352 58.1877L52.1548 58.8163C52.1548 58.8163 51.4713 58.1396 51.3956 58.1604C51.3409 58.1737 50.9311 58.1941 50.7736 58.207L51.1568 57.0798L50.4109 56.5187L51.6147 55.2335L52.5714 54.1803L53.4193 54.2562L53.9664 53.6266L54.1304 52.3339L53.358 52.2451L53.0159 51.2131L53.5355 50.857L53.05 49.859L51.8874 49.2367L51.2312 50.01L50.083 49.354L50.7394 48.4648L50.3702 47.911L51.3069 47.1791L50.6639 46.6324L51.4232 45.7372H52.1548L52.9889 44.5742L52.8795 43.7882L53.447 42.8928L54.2809 43.5628L54.7596 42.8928L56.975 43.1312L57.857 42.5849V41.7164L59.0194 40.8692L59.5049 41.2997L60.653 41.169L62.0341 41.6L62.3832 40.7657H63.4837V41.6138L64.5506 42.2975L65.6238 42.6733L66.1298 42.3454V41.5862L67.2035 41.0798C67.2035 41.0798 67.2442 41.4085 67.2924 41.4085C67.3405 41.4085 67.6956 41.3463 67.6956 41.3463L68.2016 41.4358L68.3793 41.7779H69.1243L69.3434 41.183L70.4509 41.4218L70.8205 40.2732L71.3123 40.8815L72.4608 40.9023L73.1719 40.3962L73.8282 40.6624L74.1973 39.4249L75.3662 39.5074L75.914 38.4954L76.9049 38.5501L77.0209 39.4122L76.9049 40.5334L77.0209 40.7996L77.4315 40.7445L77.7252 40.7105L78.5328 42.0439L79.8585 41.9342L81.8826 41.4971L82.5527 41.6748L83.1746 42.9321L84.4256 42.9806L84.5153 44.4847L85.0347 44.6283L85.0684 45.4346L86.2105 46.3648L86.9968 45.7014L87.7627 46.5287L88.0356 45.6265L89.3963 45.6738L89.6154 44.929L88.959 44.3823L89.3899 43.6921L89.0886 43.3505L88.07 44.1157L87.3862 43.3227L87.7627 42.6937L89.5465 42.5779L89.6837 41.6136L89.3963 40.67L89.7242 40.888L90.5994 40.827L91.5909 39.5006L93.026 40.1981L94.2773 40.1844L94.606 40.1769L95.5012 39.5006L97.0394 39.4866L97.5457 40.2459L97.8396 40.6897L97.5664 41.2509L98.0988 42.1879L98.9678 42.1327L99.0357 42.454L98.8584 42.6935L99.1248 43.11L99.6512 43.1993L99.5965 43.7874L99.0635 44.1017L97.9009 43.9651L97.7166 43.4109L97.3069 43.2198L96.425 43.3017L95.9867 44.4915L96.773 44.9563L97.415 44.3549L97.9282 46.4267L98.9061 46.1323L99.8772 46.6591L100.821 48.0262V48.5736L100.54 48.6217L100.185 48.3545L99.9661 48.4363L98.7901 48.3002V48.6215L98.9403 48.6692L98.8516 49.059L98.5507 49.2505C98.5507 49.2505 98.0309 49.7903 98.0309 49.8113C98.0517 49.8113 98.3863 49.9001 98.3863 49.9001L98.6665 49.7148L98.8173 49.9001L98.6256 50.2278L98.7967 50.8774L99.0497 51.0818L98.8919 51.4379L98.9674 52.4843L98.2014 53.1676L98.6389 54.4876L98.2773 55.5204L99.3222 57.0582L100.492 56.9831L100.581 57.2974L100.355 57.9127L101.018 58.5139L102.085 57.5646L101.873 56.5388L102.783 56.2035L103.207 56.9418L102.591 58.1175L103.671 58.2749L104.362 58.5137L105.237 57.652V56.5999L106.529 56.1212L107.664 56.155L108.218 56.8253L109.544 56.353L109.968 56.9479L109.687 57.7205L110.2 57.9737L110.029 59.0269L111.439 59.4167H112.791L113.283 58.3705L114.419 58.2817L115.123 59.0269L114.529 60.0811Z" fill="#00D2AA"/>
<path d="M80.6374 36.5346L80.7608 36.8763C80.7608 36.8763 79.8313 37.2865 79.8105 37.3075C79.7903 37.3272 79.4552 37.3075 79.4552 37.3075L79.4137 37.5944L79.6395 38.0249L79.4756 38.223L78.7299 38.1271L78.2038 38.7772L77.4312 40.7457L77.0206 40.8011L76.9046 40.5349L77.0206 39.4137L76.9046 38.5516L75.9138 38.4969L75.366 39.5089L74.197 39.4264L73.828 40.6639L73.1716 40.3977L72.4605 40.9038L71.3121 40.883L70.8203 40.2747L70.4506 41.4234L69.3431 41.1845L69.1241 41.7794H68.379L68.2013 41.4373L67.6953 41.3478C67.6953 41.3478 67.3403 41.41 67.2921 41.41C67.244 41.41 67.2033 41.0813 67.2033 41.0813L66.1295 41.5877V42.347L65.6235 42.6748L64.5504 42.299L63.4834 41.6153V40.7672H62.3829L62.0338 41.6015L60.6528 41.1705L59.5046 41.3012L59.0191 40.8707L57.8567 41.7179L57.857 42.5849L56.975 43.1312L54.7596 42.8928L54.2809 43.5628L53.447 42.8928L53.5836 42.0937L52.5713 41.9152L52.1406 41.2588C52.1406 41.2588 51.7374 41.6282 51.7374 41.6764C51.7035 41.6764 51.3955 41.3006 51.3955 41.3006L52.0311 40.2881L53.3305 40.0493L53.8773 39.3382L53.269 38.4765L52.3321 39.5159H52.0038V38.3401L50.6912 37.8818L50.7256 36.8083L50.069 36.4526L49.8911 34.8394L51.2452 33.6082L51.3067 32.7264L51.7374 32.508L53.8228 32.4528L54.9854 32.8838L56.1204 32.4458L57.1664 33.0621L58.417 32.5964L59.1082 32.9726L60.9268 32.4946L61.945 32.9251L63.3608 32.8492L64.4267 32.3432L65.5007 31.3937L66.4033 32.1801L67.1004 33.1092L67.8936 33.2802L70.0269 33.1092L72.044 33.4102L72.7275 34.4086L73.6099 34.3535L74.5189 34.8937L76.2482 34.8599L78.074 35.6936L80.0088 35.6321L80.7807 35.892L80.6374 36.5346Z" fill="#00AAE1"/>
<path d="M54.1304 52.3339L53.9664 53.6266L53.4193 54.2562L52.5714 54.1803L51.6147 55.2335L50.4109 56.5187L51.1568 57.0798L50.7736 58.207C50.7326 58.207 50.7122 58.2077 50.7122 58.2077L49.9527 58.4754L49.3852 58.0512L48.3121 57.9827L48.3394 59.5483L47.6758 59.5006L46.9921 60.232C46.9921 60.232 46.1175 60.0473 46.0901 60.0473C46.0628 60.0473 45.1744 60.3205 45.1744 60.3205L45.1941 59.7941L44.7911 59.6168L44.3331 60.0543L43.198 60.0955L43.2392 59.3025L41.954 58.8302L40.5112 59.4866H39.8885V58.9265L39.5808 58.564L39.2731 58.9265L39.1437 59.2541L38.9178 59.2815L38.7679 59.1241L38.5764 59.7604L37.523 60.3005L36.5932 60.0333L36.4157 59.07L36.2242 58.2968L36.614 57.6334L37.688 57.1348L37.8929 56.6695L37.7626 55.8834L36.8806 55.9654L36.4227 55.7597C36.4227 55.7597 36.4573 54.6936 36.4227 54.6936C36.3952 54.6936 35.4243 54.6455 35.4243 54.6455L34.9464 55.4592L33.9406 55.705L33.12 55.3296L32.3345 55.9175L31.0151 56.0337L30.9944 56.5597L30.3174 56.9773L29.7157 57.5314L28.8886 57.9202L28.3485 58.5568L28.0274 57.8731L28.1292 54.7759L28.8746 54.9602L29.0596 54.5774L28.6562 53.8048L31.0832 52.4511L30.3721 51.8556L29.5584 52.4649C29.5584 52.4649 28.8746 52.1913 28.8746 52.1639C28.8746 52.1361 28.9016 51.4662 28.9016 51.4662L31.083 50.0306L30.7685 49.4972L29.2369 50.4204L28.9016 50.3863L28.6146 49.4975L27.7127 48.9374L28.3071 48.4447L28.4439 47.6988L28.7516 47.6174L28.6148 48.2322L28.8821 48.6016L29.5997 48.4447L29.3259 47.7262L29.9757 47.0696L29.9825 46.2696L29.2169 46.058L28.6426 46.441L28.5678 47.1317L28.1504 47.3438L28.0276 47.2206L27.0768 48.1438L26.4139 46.817L27.0151 45.019L27.6234 44.9301L28.1294 44.1783H28.9094L29.0182 43.3236L28.615 43.0363L28.1504 43.727L27.1729 43.7614L26.6671 44.6845L26.0041 43.8776L26.1607 43.0365H25.8877L25.7435 42.5856L26.2835 42.1133L25.7435 41.4985L24.8205 41.5532L24.5336 42.2229L24 41.3748L25.0123 40.3361L24.4382 39.3448L25.1495 38.7088L25.7369 39.0642L26.3931 38.3334L26.0654 37.9703L25.7096 38.4416C25.7096 38.4416 25.4498 38.3334 25.4706 38.298C25.4913 38.2706 25.45 37.8545 25.45 37.8545L25.9834 37.0605H26.6192L27.3644 37.5055L27.9523 36.5271L28.8002 36.8491L28.8825 36.6508L28.4242 35.837H29.0534L29.4973 35.2833H29.9422L30.1539 34.9889L30.6393 35.6727L32.0003 35.8097L32.6155 35.4135L33.5798 35.7278L34.6593 34.7906L36.0613 35.2356L36.1638 34.3393L36.8887 34.4293V35.2078L37.4564 35.7208L37.5584 34.6195L37.8324 34.0664L37.7022 33.9845L37.2168 34.1762L36.1778 33.1504L36.1572 31.8996L37.5179 31.6945L37.8324 30.9079L39.0763 30.5385C39.0763 30.5385 39.5 29.5678 39.5348 29.5678C39.5623 29.5678 40.4917 29.5067 40.4917 29.5067L41.0185 28.8705H41.7022L41.7635 29.5196L41.4076 29.9232C41.4076 29.9232 41.4829 30.3741 41.5173 30.3815C41.5718 30.3815 42.3991 29.9847 42.3991 29.9847L42.5569 29.4787L43.8353 28.6584L44.054 28.781L43.8487 29.1438L43.9585 29.3421L44.3135 29.3693L44.7922 29.9026L46.4061 29.7249L47.7253 30.5319V31.2156L48.9973 32.4253L51.123 32.3782L51.3081 32.7263L51.2466 33.6081L49.8925 34.8392L50.0704 36.4525L50.727 36.8081L50.6927 37.8817L52.0052 38.34V39.5157H52.3335L53.2705 38.4763L53.8787 39.338L53.332 40.0491L52.0326 40.2879L51.397 41.3004C51.397 41.3004 51.7049 41.6762 51.7389 41.6762C51.7389 41.6281 52.142 41.2586 52.142 41.2586L52.5727 41.915L53.585 42.0934L53.4482 42.8933L52.8807 43.7887L52.9901 44.5747L52.156 45.7377H51.4243L50.6651 46.6329L51.3081 47.1796L50.3714 47.9115L50.7406 48.4653L50.0842 49.3545L51.2324 50.0105L51.8886 49.2372L53.0512 49.8595L53.5366 50.8575L53.0171 51.2136L53.3591 52.2456L54.1304 52.3339Z" fill="#0082D2"/>
<path d="M173.506 51.3436L172.877 52.3009L173.416 53.7021L173.971 53.6754L174.415 54.3795L174.244 55.104L174.674 55.7873L174.34 57.5319L173.178 58.0097L172.958 59.0495L170.941 60.2526L169.821 61.565L166.505 62.9528L165.055 64.4772L163.845 64.888L163.086 65.5932L162.458 66.7819L162.409 67.4245L161.07 68.3347L159.757 68.4505L158.368 69.0522L157.275 69.4619L156.242 69.818L154.8 69.9198L153.049 71.0629L151.703 71.1303L150.54 72.1216L148.934 72.259L147.594 73.6604L147.094 74.1932L146.65 75.1912L145.734 75.7929L145.07 76.6758L145.918 77.3243L145.707 76.7432L145.857 76.5451L146.458 76.7095L146.48 77.0304L147.143 77.8367L147.84 77.7078L147.485 78.4322L146.144 78.9993L145.802 79.6969L145.659 80.2029L144.305 80.8052L144.128 80.3187L145.16 79.8816L145.536 79.8409L145.625 79.4782L145.07 79.3957L144.032 79.6623L143.006 81.139L142.842 81.7954L142.678 81.7757L142.74 81.2904L142.275 80.8728L141.646 79.9155L140.907 80.1961L140.162 79.5461L139.827 79.5049L140.107 78.8971L139.58 78.3569L138.699 78.2267L138.48 78.2197L138.788 77.6526L139.751 77.1125L139.896 76.0453L139.348 75.3753L140.183 74.1588L139.766 73.2015L138.911 72.5311L139.095 71.6701L140.04 71.096L140.093 70.2543L141.119 69.1336L140.217 67.5127L140.525 66.1864L140.183 65.3794L141.119 64.8327L141.236 64.1896L141.42 63.8961L141.119 63.8276L140.819 64.1623L140.497 64.1831L139.772 62.7749L140.969 61.3452L141.618 61.4479L141.707 61.0859L141.523 60.9283L141.817 60.6002L143.143 59.4179L142.999 57.9198L144.059 57.1754L144.216 54.2627L144.62 52.6424L144.511 51.0215L143.745 49.8039L144.62 48.5465L144.572 47.4734L144.072 47.6982L143.854 47.6782L143.444 46.0987L142.952 45.4423L142.91 44.5942L143.089 43.5421L144.326 43.4528L145.009 44.0551L145.707 43.9798L146.11 44.3149L148.845 45.0186L148.893 45.8597L151.067 45.4084L152.475 47.0838L152.407 48.0681L152.988 48.5126L152.558 49.0464L152.92 49.812L153.706 49.9689L154.233 49.4629L155.867 48.7995L157.07 48.8884L158.615 49.4629L158.779 49.9893L159.231 50.7962C159.231 50.7962 160.045 50.7347 160.079 50.7347C160.106 50.7347 160.393 50.0781 160.393 50.0781L161.549 49.8319L162.567 49.3543L163.914 49.9208L164.612 50.1333L165.713 50.7752L166.177 50.3447L166.765 50.4272L167.264 50.5364V49.5925L167.757 49.1554L168.679 49.1961L169.254 48.6901L170.341 48.3206L171.777 48.3136L172.276 48.9092C172.276 48.9092 172.618 48.6494 172.651 48.643C172.679 48.6286 173.595 48.5804 173.595 48.5804V49.1687L173.432 49.4767L173.691 50.0026L174.245 49.791C174.245 49.791 174.656 50.1871 174.683 50.1871C174.717 50.1871 175.462 50.0506 175.462 50.0506L175.038 51.4518L174.327 51.8352L173.506 51.3436Z" fill="#0082D2"/>
<path d="M156.266 109.187L156.107 109.515L156.325 109.753L156.504 109.624L156.871 109.872L156.702 110.012L157.05 110.219L157.258 110.676L157.397 110.398L157.823 110.002L158.062 110.091L157.943 110.329L158.121 110.359V110.627L157.834 110.676C157.834 110.676 157.823 111.093 157.793 111.093C157.764 111.093 157.426 111.004 157.426 111.004L157.114 111.034L156.989 110.735L156.394 110.299L156.186 110.329L156.235 110.578L155.838 110.925L155.789 111.331H155.511V110.865L155.115 110.308L155.899 109.446L155.919 109.079L156.147 109.029L156.266 109.187Z" fill="#00D2AA"/>
<path d="M155.765 107.195C155.765 107.217 155.646 108.096 155.646 108.096L155.244 108.058L155.013 108.215C155.013 108.215 154.879 107.664 154.873 107.641C154.865 107.619 154.7 107.448 154.7 107.448L154.522 107.671L154.038 107.389L153.785 107.358V107.604L153.875 107.705L153.667 107.999L153.353 107.477L153.093 107.485L153.049 107.195C153.049 107.195 153.324 106.793 153.347 106.793C153.37 106.793 153.338 105.99 153.338 105.99L154.158 106.042L154.366 105.699L153.897 105.423L154.113 104.948L154.009 104.723L154.406 104.665L154.7 104.144L154.813 103.853L155.237 103.935L155.884 103.787L156.323 103.482C156.323 103.482 157.395 103.578 157.425 103.578C157.455 103.578 157.708 103.482 157.708 103.482L157.76 103.734L158.065 103.727L157.737 103.957V104.189L158.154 104.219L158.119 104.353L157.768 104.457L157.686 104.769L157.752 104.866L157.574 105.015L157.611 105.239L157.946 105.289L157.826 105.542L157.618 105.469L157.455 105.357L157.112 105.402L157.09 106.206L155.854 106.942L155.765 107.195Z" fill="#00D2AA"/>
<path d="M174.902 101.992L174.812 101.754C174.812 101.754 174.767 101.398 174.812 101.398C174.857 101.398 175.006 101.352 175.006 101.352L175.051 101.159C175.051 101.159 174.701 101.032 174.701 101.053C174.701 101.077 174.589 101.382 174.589 101.382L174.069 101.829L174.195 101.992L174.448 101.866L174.835 102.238L174.902 101.992Z" fill="#00D2AA"/>
<path d="M176.191 99.7669C176.108 99.7595 175.459 99.6706 175.459 99.6706L174.88 98.9703L174.664 98.2711C174.664 98.2711 172.967 98.3457 172.923 98.3457C172.878 98.3457 171.866 97.9436 171.866 97.9436L171.911 97.1244L171.546 96.7371V95.9554L170.786 95.4651L169.387 96.0602L169.097 97.2291L168.033 96.1579L167.496 96.3208L166.336 95.0401L168.464 93.2614L169.41 92.8304L169.647 92.1526L170.921 91.3571C170.921 91.3571 170.98 90.8655 170.995 90.8426C171.01 90.8208 171.531 90.1737 171.531 90.1737H172.648L174.039 89.0047L174.635 89.094L175.297 88.603L175.58 88.7367L176.897 88.0748L177.091 88.5952L175.387 89.5035L175.677 89.9058L176.845 89.5105L177.01 90.1805L176.018 90.3378L176.004 90.9775L176.883 91.8629L178.096 91.9999L178.967 91.0967L180.351 91.5654L180.626 93.0098L179.428 93.5377L179.934 94.2895L178.505 95.8517L178.029 98.0478L176.875 98.8214L176.191 99.7669Z" fill="#00D2AA"/>
<path d="M186.401 87.9104L185.761 88.4164L184.666 88.3201L184.704 87.4342L184.042 86.8016L184.719 86.1465L187.242 86.005L187.733 85.3361L187.942 85.3942L187.8 85.6704L188.128 86.0731L188.328 85.945V85.6108L188.611 85.4545L188.872 85.6769L188.753 86.0205L188.819 86.3696L189.103 86.2801L190.115 86.7787L189.973 87.747L191 88.2828L190.532 88.9006L190.42 89.8382L189.013 89.5033L187.599 88.2232L186.401 87.9104Z" fill="#00D2AA"/>
<path d="M126.275 111.272L125.968 112.132L125.072 112.529L124.326 111.578L123.697 111.811L123.444 111.578L123.595 111.024L122.98 110.566L121.722 110.779L120.956 112.262L120.34 111.339L119.636 111.967L119.698 112.918L119.007 113.657L119.267 116.74C119.267 116.74 118.515 116.788 118.488 116.788C118.454 116.788 117.818 117.95 117.818 117.95L116.867 118.012L116.519 117.752L116.409 116.74L114.912 117.007L113.64 118.395L112.444 118.525L111.705 118.053L111.227 119.29C111.227 119.29 110.577 119.27 110.584 119.297C110.584 119.338 109.634 119.974 109.634 119.974L109.771 120.999L108.143 122.189L108.143 122.613L107.09 122.695L106.385 121.93L105.674 121.991L105.524 121.395L106.912 119.906L106.816 119.318L107.356 118.825L107.117 118.388H106.311V116.582L105.223 116.658L105.278 115.181L104.669 114.559L103.46 115.297L102.816 114.45L101.436 115.817L100.485 115.352L99.7263 116.412L99.043 115.489L98.7966 115.359L98.0984 116.234L97.5725 115.728L96.6839 115.755L96.3006 115.926L95.918 115.428C95.918 115.428 95.0702 115.4 95.0428 115.393C95.0154 115.393 94.9673 116.405 94.9673 116.405L93.3542 116.836L92.7591 115.818L92.6635 116.104L92.4448 115.728L92.2465 116.945L90.38 116.213L89.0331 116.48L88.862 117.431L88.0349 117.356L87.5153 117.554L86.4284 116.924L83.4062 116.802L82.7019 117.479L81.7927 116.645L81.2318 116.542L80.8352 116.645L80.1381 115.317L79.4949 115.181L79.0981 115.4L78.9823 114.524L78.2648 114.169L77.9297 114.354L77.9711 113.8L76.0766 113.554L75.8652 112.241L75.4957 111.796L74.2444 111.948L73.7798 111.195L74.3616 110.983L75.0451 108.734L76.2077 108.857L76.1462 107.606L74.9562 107.367L74.7514 106.163L75.8998 106.444L76.2556 106.012L75.8792 105.13L76.9394 103.646L77.7868 103.853L78.3542 104.447L78.9011 104.105L77.8134 103.347L77.5065 102.095L78.4426 100.475L78.3062 99.7154L77.7245 99.7296L75.701 101.056L73.4382 99.3736L71.7564 97.6301L72.6518 95.3672L72.1326 94.9774L72.3646 94.2052L71.8586 93.7469L71.086 94.3825L70.0746 93.8491L70.6419 92.8649L69.2125 92.1945L69.7599 91.2168L69.541 89.1446L70.1764 88.7963L70.8818 89.2689L71.6958 88.694L72.4476 89.3917L73.5619 88.3048L73.9788 87.9214L74.0197 88.3116L74.2728 88.4145L74.3406 88.9546L75.3323 88.6603L75.5645 88.1403V87.7575L75.893 87.5657L76.2559 87.5872L76.7685 87.2922L76.8845 86.4248L78.2658 86.3219L78.4639 86.7942L78.3618 87.0608L78.4978 87.4839L79.5037 87.518L80.1664 87.5179L80.4397 87.805L80.7952 86.9987L81.6433 87.0738L82.5803 85.9737L82.8191 86.807L83.0239 87.2246L83.6057 87.3885V86.9709L84.6173 86.2747L85.1093 86.8895L86.0804 86.7181L86.9552 87.5525L89.4851 87.5247L89.8753 88.1611L91.0443 88.2839L92.1792 89.1324L91.3039 90.5884L90.7092 90.7116L90.6204 91.3949H89.6081L88.665 92.0653L89.5059 92.8655L91.0511 91.5599L92.432 91.2312L94.0247 91.3951L95.3101 91.2581L95.5904 90.2601L96.5136 90.1576L97.409 89.4192L98.2703 90.0206L99.146 89.4192L98.4213 88.4892L98.6537 86.8694L98.1409 86.3495L97.1974 86.9991L96.9444 86.1718L97.9426 85.5292L98.1409 84.545L96.9028 82.9858L96.7185 82.1654H96.3219L96.1989 82.3158L95.3101 81.2834L95.3239 80.4701L94.1755 79.191L93.9568 78.337L93.553 78.1726L93.5051 77.3449L93.8469 77.0584L93.8609 76.1967L94.2775 75.7518L94.6062 74.4398C94.6062 74.4398 94.1339 74.0153 94.1339 73.9474C94.1479 73.9056 94.1888 73.0863 94.1888 73.0863L93.655 73.2019L93.1293 72.3947L94.1549 71.1508L96.1718 70.4397L97.1635 69.4614L98.3051 70.3027L99.8501 70.1655L100.677 69.3178L101.642 70.6993L103.309 70.3235L105.018 71.4721L104.8 72.2855L105.49 72.2988L106.373 73.4345L107.323 73.0106L107.569 73.5713L108.519 73.373L108.718 72.8188L109.477 73.236L110.064 72.5179L110.885 73.2767L111.125 73.1264L111.049 71.9581L112.327 71.766L112.772 72.3539L113.298 72.2385L114.549 72.9962L115.486 74.3777L116.812 75.1232L116.758 76.4565L117.619 77.6255L117.291 78.5417L117.701 79.5741L117.4 80.183L117.435 80.8256L116.805 81.3931L115.786 80.9486L115.588 81.5975L115.711 82.5962L114.987 82.979L114.385 84.0178L115.602 85.1191L115.281 85.7687L115.465 85.8438L116.094 85.6798L117.633 87.4785L118.097 87.1364L118.945 87.6151L119.027 88.2367L119.041 88.3257C119.041 88.3257 119.191 89.1187 119.205 89.2349C119.219 89.3585 120.046 90.3292 120.067 90.3292C120.093 90.3292 121.079 90.2329 121.079 90.2329L121.476 90.5551L122.5 90.3907L122.856 90.7044L122.712 91.0604L122.104 91.3951L122.234 93.3511L121.154 94.5472L121.366 95.5589L120.743 95.9624L120.08 95.4844L118.583 97.6374L118.275 99.4214L120.49 101.063L122.405 101.268L122.897 101.732L122.808 103.558L121.7 104.81L121.543 106.102L123.676 107.701L124.927 107.729L125.618 107.442L126.055 109.438L125.83 110.361L126.275 111.272Z" fill="#8CD26E"/>
<path d="M115.123 55.0361V56.4373L113.325 56.3351L112.395 57.422L113.283 58.3724L112.791 59.4185H111.438L110.029 59.0287L110.2 57.9756L109.687 57.7223L109.968 56.9497L109.544 56.3549L108.218 56.8272L107.663 56.1568L106.529 56.123L105.237 56.6017V57.6538L104.361 58.5155L103.671 58.2767L102.591 58.1193L103.206 56.9436L102.782 56.2053L101.873 56.5406L102.084 57.5665L101.018 58.5157L100.355 57.9145L100.581 57.2992L100.491 56.9849L99.3219 57.06L98.2769 55.5222L98.6385 54.4894L98.201 53.1694L98.967 52.4861L98.8916 51.4397L99.0493 51.0836L98.7963 50.8792L98.6252 50.2296L98.8169 49.9019L98.6661 49.7166L98.386 49.9019C98.386 49.9019 98.0511 49.8131 98.0305 49.8131C98.0305 49.7923 98.5503 49.2523 98.5503 49.2523L98.8513 49.0608L98.9399 48.671L98.7897 48.6233V48.302L99.9657 48.4382L100.184 48.3563L100.54 48.6235L100.82 48.5754L101.962 49.0133L102.625 48.3637L103.5 49.3683L103.104 49.9151L103.61 50.4285H104.772L105.223 50.0391L105.9 50.7566L106.16 50.8658L106.755 51.1051L108.108 50.8582L108.874 51.7337L110.084 51.1114L110.269 52.3012H111.151L111.39 52.5951L112.107 52.835L112.751 54.1265L113.544 54.2084L115.123 55.0361Z" fill="#00AAE1"/>
<path d="M99.146 89.4192L98.2703 90.0206L97.409 89.4192L96.5136 90.1576L95.5904 90.2601L95.3101 91.2581L94.0247 91.3951L92.432 91.2312L91.0511 91.5599L89.5059 92.8655L88.665 92.0653L89.6081 91.3949H90.6204L90.7092 90.7116L91.3039 90.5884L92.1792 89.1324L91.0443 88.2839L89.8753 88.1611L89.4851 87.5247L86.9552 87.5525L86.0804 86.7181L85.1093 86.8895L84.6173 86.2747L83.6057 86.9709V87.3885L83.0239 87.2246L82.8191 86.807L82.5803 85.9737L81.6433 87.0738L80.7952 86.9987L80.4397 87.805L80.1664 87.5179L79.5037 87.518L79.8928 87.1764L79.7698 87.0667L79.9957 86.882L79.8725 86.5955L80.4264 85.8979L81.2194 85.8362L82.0054 84.4206L83.2367 83.7169L82.9421 82.1444L83.4414 81.386L83.5578 80.797L83.7493 80.736L84.2547 81.112L85.0205 80.8248L85.1024 79.56L86.1971 78.2546L86.6749 78.138L87.7552 77.4473V76.8254L88.4937 75.3964L89.5191 74.8423L89.9846 74.7808L90.7572 73.5711L91.3105 73.4415L92.0214 72.3332L93.1293 72.3947L93.655 73.2019L94.1888 73.0863C94.1888 73.0863 94.1479 73.9056 94.1339 73.9474C94.1339 74.0153 94.6062 74.4398 94.6062 74.4398L94.2775 75.7518L93.8609 76.1967L93.8469 77.0584L93.5051 77.3449L93.553 78.1726L93.9568 78.337L94.1755 79.191L95.3239 80.4701L95.3101 81.2834L96.1989 82.3158L96.3219 82.1654H96.7185L96.9028 82.9858L98.1409 84.545L97.9426 85.5292L96.9444 86.1718L97.1974 86.9991L98.1409 86.3495L98.6537 86.8694L98.4213 88.4892L99.146 89.4192Z" fill="#00D7E1"/>
<path d="M105.319 47.7618L105.182 48.0135L103.89 48.1163L103.377 47.3304L102.83 47.8979L101.989 47.8428L101.318 46.8174L101.367 45.9016L102.153 45.5595L102.912 46.0933L103.295 45.8815L103.924 45.9767L104.067 46.2914H104.375L104.601 46.8377L105.182 47.2483L105.1 47.5836L105.319 47.7618Z" fill="#00D2AA"/>
<path d="M91.5758 81.1246L92.2727 82.5353L93.8302 82.7627L92.7024 83.861L92.9696 85.4128L91.5758 84.6799L90.1831 85.4128L90.449 83.861L89.3225 82.7627L90.88 82.5353L91.5758 81.1246Z" fill="white"/>
<path d="M80.6905 54.8591C79.0831 54.8591 77.7742 56.1668 77.7742 57.7743C77.7742 59.3821 79.0831 60.6898 80.6905 60.6898C82.2984 60.6898 83.6061 59.3819 83.6061 57.7743C83.6061 56.1668 82.2984 54.8591 80.6905 54.8591Z" fill="#00D2AA"/>
<path d="M80.6908 54.0069C78.6097 54.0069 76.9222 55.6942 76.9222 57.7743C76.9222 59.5706 79.7289 64.3687 80.4976 65.6501C80.5381 65.7173 80.6111 65.7587 80.6906 65.7587C80.7695 65.7587 80.8425 65.7175 80.8826 65.6501C81.6516 64.37 84.4584 59.5708 84.4584 57.7743C84.4586 55.6942 82.7713 54.0069 80.6908 54.0069ZM80.6905 60.6898C79.0831 60.6898 77.7742 59.3821 77.7742 57.7743C77.7742 56.1668 79.0831 54.8591 80.6905 54.8591C82.2984 54.8591 83.6061 56.1668 83.6061 57.7743C83.6061 59.3819 82.2984 60.6898 80.6905 60.6898Z" fill="white"/>
<path d="M79.9471 58.4969H78.7779V58.2509L79.1976 57.8266C79.3219 57.6989 79.4031 57.6107 79.4413 57.5617C79.4795 57.5123 79.507 57.4669 79.5238 57.4249C79.5405 57.3831 79.549 57.3394 79.549 57.2945C79.549 57.2272 79.5306 57.1776 79.4935 57.1447C79.4566 57.1121 79.4071 57.0953 79.3452 57.0953C79.2803 57.0953 79.2173 57.1102 79.1565 57.1401C79.0954 57.1695 79.0318 57.212 78.9656 57.2669L78.7735 57.0395C78.8557 56.9693 78.924 56.9197 78.9781 56.8904C79.0322 56.8616 79.0914 56.8393 79.1554 56.8236C79.2195 56.8079 79.2911 56.8001 79.3705 56.8001C79.475 56.8001 79.5673 56.8192 79.6472 56.8574C79.7274 56.8953 79.7895 56.949 79.8336 57.0175C79.878 57.086 79.9 57.1644 79.9 57.2531C79.9 57.3303 79.8864 57.4024 79.8595 57.4698C79.8324 57.5373 79.7906 57.6066 79.7337 57.6773C79.6769 57.7483 79.5768 57.8495 79.4334 57.9807L79.2184 58.1831V58.1992H79.9471V58.4969Z" fill="white"/>
<path d="M81.2763 57.6607C81.2763 57.9527 81.2284 58.1688 81.1327 58.3092C81.0371 58.4496 80.8897 58.5198 80.6905 58.5198C80.4975 58.5198 80.352 58.4473 80.2541 58.3024C80.1561 58.1574 80.1071 57.9436 80.1071 57.6609C80.1071 57.3655 80.1548 57.1481 80.25 57.0079C80.3455 56.8681 80.4922 56.7982 80.6905 56.7982C80.8835 56.7982 81.0294 56.8713 81.1283 57.0179C81.2269 57.1642 81.2763 57.3784 81.2763 57.6607ZM80.4583 57.6607C80.4583 57.8658 80.4759 58.0127 80.5115 58.1018C80.5469 58.1907 80.6065 58.235 80.6905 58.235C80.7728 58.235 80.8324 58.19 80.8689 58.0999C80.9056 58.01 80.9238 57.8636 80.9238 57.6609C80.9238 57.4556 80.9054 57.3084 80.8682 57.2185C80.8313 57.1292 80.772 57.0843 80.6903 57.0843C80.6072 57.0843 80.5478 57.1292 80.5119 57.2185C80.4761 57.3082 80.4583 57.4554 80.4583 57.6607Z" fill="white"/>
<path d="M82.6116 57.6607C82.6116 57.9527 82.5637 58.1688 82.4681 58.3092C82.3724 58.4496 82.225 58.5198 82.0259 58.5198C81.8329 58.5198 81.6874 58.4473 81.5894 58.3024C81.4914 58.1574 81.4424 57.9436 81.4424 57.6609C81.4424 57.3655 81.4902 57.1481 81.5854 57.0079C81.6808 56.8681 81.8276 56.7982 82.0259 56.7982C82.2189 56.7982 82.3648 56.8713 82.4636 57.0179C82.5622 57.1642 82.6116 57.3784 82.6116 57.6607ZM81.7936 57.6607C81.7936 57.8658 81.8115 58.0127 81.8469 58.1018C81.8823 58.1907 81.9421 58.235 82.0259 58.235C82.1082 58.235 82.1675 58.19 82.2042 58.0999C82.2409 58.01 82.2592 57.8636 82.2592 57.6609C82.2592 57.4556 82.2407 57.3084 82.2036 57.2185C82.1667 57.1292 82.1073 57.0843 82.0257 57.0843C81.9425 57.0843 81.8831 57.1292 81.8471 57.2185C81.8115 57.3082 81.7936 57.4554 81.7936 57.6607Z" fill="white"/>
<path d="M40.2436 39.4479C38.636 39.4479 37.3271 40.7556 37.3271 42.3633C37.3271 43.9711 38.636 45.279 40.2436 45.279C41.8513 45.279 43.1592 43.9711 43.1592 42.3633C43.1592 40.7556 41.8513 39.4479 40.2436 39.4479Z" fill="#0082D2"/>
<path d="M40.2438 38.5957C38.1624 38.5957 36.4751 40.283 36.4751 42.3633C36.4751 44.1598 39.2818 48.9577 40.0506 50.2391C40.0911 50.3063 40.164 50.3477 40.2438 50.3477C40.3227 50.3477 40.3956 50.3065 40.4357 50.2391C41.2047 48.959 44.0113 44.16 44.0113 42.3633C44.0116 40.283 42.3243 38.5957 40.2438 38.5957ZM40.2436 45.279C38.636 45.279 37.3271 43.9711 37.3271 42.3633C37.3271 40.7556 38.636 39.4479 40.2436 39.4479C41.8513 39.4479 43.1592 40.7556 43.1592 42.3633C43.1592 43.9711 41.8513 45.279 40.2436 45.279Z" fill="white"/>
<path d="M39.5376 42.7392H39.3362V43.0858H38.9907V42.7392H38.2768V42.4932L39.01 41.4131H39.3362V42.4646H39.5376V42.7392ZM38.9907 42.4646V42.1808C38.9907 42.1335 38.9926 42.065 38.9964 41.9749C39.0002 41.8848 39.0032 41.8326 39.0058 41.8182H38.9964C38.9682 41.8807 38.9343 41.9418 38.8946 42.0012L38.588 42.4646H38.9907Z" fill="white"/>
<path d="M40.2451 41.3917C40.4052 41.3917 40.5343 41.4281 40.6323 41.5009C40.7303 41.5736 40.7793 41.672 40.7793 41.7957C40.7793 41.8809 40.7555 41.9571 40.7082 42.0239C40.6609 42.0907 40.5846 42.1503 40.4794 42.2029C40.6045 42.2699 40.6942 42.3399 40.7487 42.4128C40.8033 42.4856 40.8306 42.5653 40.8306 42.6521C40.8306 42.7897 40.777 42.8998 40.6692 42.9833C40.5617 43.0671 40.4202 43.1087 40.2449 43.1087C40.0618 43.1087 39.918 43.0696 39.8135 42.992C39.7089 42.9142 39.6568 42.8041 39.6568 42.6614C39.6568 42.5662 39.6822 42.4811 39.7329 42.4071C39.7836 42.3333 39.8652 42.2682 39.9772 42.2118C39.8818 42.1515 39.8133 42.0869 39.7713 42.0184C39.7293 41.9499 39.7085 41.8746 39.7085 41.7929C39.7085 41.6733 39.7579 41.5764 39.8572 41.5024C39.9566 41.4286 40.0856 41.3917 40.2451 41.3917ZM39.9842 42.6406C39.9842 42.7063 40.0071 42.7572 40.0529 42.7941C40.0987 42.8308 40.1611 42.8491 40.2404 42.8491C40.3282 42.8491 40.3937 42.8302 40.4372 42.7924C40.4807 42.7547 40.5025 42.7049 40.5025 42.6431C40.5025 42.592 40.4809 42.5443 40.4378 42.4996C40.3948 42.455 40.3248 42.4071 40.2279 42.357C40.0654 42.4319 39.9842 42.5265 39.9842 42.6406ZM40.2429 41.65C40.1825 41.65 40.1341 41.6653 40.097 41.6964C40.0601 41.7276 40.0417 41.7687 40.0417 41.8207C40.0417 41.8665 40.0563 41.9074 40.0856 41.9437C40.1148 41.98 40.1681 42.0171 40.2453 42.0555C40.3199 42.0201 40.3723 41.9844 40.402 41.9477C40.4317 41.9113 40.4465 41.8688 40.4465 41.8209C40.4465 41.7683 40.4274 41.7268 40.3893 41.6962C40.3511 41.6655 40.3023 41.65 40.2429 41.65Z" fill="white"/>
<path d="M42.1664 42.2495C42.1664 42.5417 42.1185 42.7578 42.0229 42.8982C41.927 43.0382 41.7798 43.1086 41.5807 43.1086C41.3877 43.1086 41.2422 43.0363 41.1442 42.8914C41.0462 42.7464 40.9972 42.5324 40.9972 42.2497C40.9972 41.9545 41.045 41.7369 41.1402 41.5969C41.2356 41.4567 41.3824 41.3867 41.5807 41.3867C41.7737 41.3867 41.9194 41.4603 42.0182 41.6067C42.117 41.753 42.1664 41.9674 42.1664 42.2495ZM41.3484 42.2495C41.3484 42.4546 41.3661 42.6017 41.4017 42.6904C41.4371 42.7792 41.4967 42.8236 41.5807 42.8236C41.663 42.8236 41.7223 42.7784 41.759 42.6885C41.7957 42.5986 41.8142 42.4522 41.8142 42.2493C41.8142 42.044 41.7957 41.8966 41.7586 41.8071C41.7215 41.7174 41.6623 41.6724 41.5807 41.6724C41.4975 41.6724 41.438 41.7174 41.4021 41.8071C41.3663 41.897 41.3484 42.0442 41.3484 42.2495Z" fill="white"/>
<path d="M152.152 53.9822C150.544 53.9822 149.235 55.2897 149.235 56.8974C149.235 58.5052 150.544 59.8133 152.152 59.8133C153.76 59.8133 155.067 58.5052 155.067 56.8974C155.067 55.2897 153.76 53.9822 152.152 53.9822Z" fill="#0082D2"/>
<path d="M152.152 53.13C150.07 53.13 148.383 54.8173 148.383 56.8974C148.383 58.6937 151.19 63.4918 151.959 64.773C151.999 64.8404 152.072 64.8818 152.152 64.8818C152.231 64.8818 152.304 64.8406 152.344 64.773C153.113 63.4928 155.919 58.6937 155.919 56.8974C155.919 54.8173 154.232 53.13 152.152 53.13ZM152.152 59.8133C150.544 59.8133 149.235 58.5052 149.235 56.8974C149.235 55.2897 150.544 53.9822 152.152 53.9822C153.76 53.9822 155.067 55.2897 155.067 56.8974C155.067 58.5052 153.76 59.8133 152.152 59.8133Z" fill="white"/>
<path d="M151.343 56.3219C151.343 56.4264 151.311 56.5153 151.248 56.5882C151.185 56.6616 151.096 56.7119 150.981 56.739V56.746C151.117 56.763 151.218 56.8037 151.288 56.8693C151.357 56.9344 151.392 57.0222 151.392 57.1329C151.392 57.2938 151.334 57.419 151.217 57.5087C151.1 57.598 150.934 57.6427 150.717 57.6427C150.536 57.6427 150.375 57.6128 150.235 57.5524V57.2516C150.299 57.2843 150.371 57.311 150.449 57.3318C150.526 57.3522 150.604 57.3625 150.68 57.3625C150.796 57.3625 150.882 57.3428 150.938 57.303C150.994 57.2631 151.022 57.1997 151.022 57.1119C151.022 57.0334 150.99 56.9778 150.926 56.945C150.862 56.9121 150.759 56.8958 150.619 56.8958H150.492V56.6247H150.621C150.751 56.6247 150.846 56.608 150.906 56.5738C150.965 56.5399 150.995 56.4818 150.995 56.3993C150.995 56.2727 150.916 56.2095 150.758 56.2095C150.703 56.2095 150.647 56.2184 150.59 56.2368C150.533 56.2551 150.47 56.2867 150.401 56.3316L150.237 56.0882C150.39 55.9781 150.572 55.9236 150.783 55.9236C150.956 55.9236 151.093 55.9584 151.193 56.0288C151.293 56.0992 151.343 56.1968 151.343 56.3219Z" fill="white"/>
<path d="M151.565 56.9097C151.565 56.5789 151.635 56.3325 151.774 56.1706C151.914 56.0092 152.124 55.9282 152.403 55.9282C152.498 55.9282 152.573 55.934 152.627 55.9454V56.2279C152.56 56.2128 152.492 56.205 152.426 56.205C152.305 56.205 152.206 56.223 152.129 56.2599C152.053 56.2966 151.995 56.3509 151.957 56.4224C151.919 56.4941 151.896 56.5959 151.89 56.7278H151.904C151.98 56.5982 152.101 56.5337 152.267 56.5337C152.417 56.5337 152.534 56.5804 152.618 56.6743C152.703 56.7683 152.745 56.8979 152.745 57.0633C152.745 57.2421 152.695 57.3831 152.594 57.4872C152.494 57.5914 152.354 57.6431 152.175 57.6431C152.052 57.6431 151.944 57.6147 151.852 57.5574C151.761 57.4999 151.69 57.4166 151.64 57.3067C151.59 57.1971 151.565 57.0648 151.565 56.9097ZM152.169 57.3602C152.244 57.3602 152.302 57.335 152.343 57.2843C152.383 57.2336 152.403 57.1613 152.403 57.0675C152.403 56.9859 152.384 56.9216 152.346 56.8745C152.308 56.8279 152.252 56.8045 152.175 56.8045C152.104 56.8045 152.042 56.8274 151.992 56.8741C151.941 56.9208 151.916 56.9748 151.916 57.0366C151.916 57.1273 151.94 57.2041 151.987 57.2664C152.035 57.329 152.095 57.3602 152.169 57.3602Z" fill="white"/>
<path d="M154.075 56.7839C154.075 57.0761 154.026 57.2923 153.931 57.4327C153.835 57.573 153.688 57.643 153.489 57.643C153.296 57.643 153.15 57.5707 153.052 57.4259C152.954 57.281 152.905 57.067 152.905 56.7841C152.905 56.4891 152.953 56.2715 153.048 56.1315C153.144 55.9916 153.29 55.9216 153.489 55.9216C153.682 55.9216 153.827 55.9948 153.926 56.1413C154.025 56.2874 154.075 56.5018 154.075 56.7839ZM153.257 56.7839C153.257 56.989 153.274 57.1362 153.31 57.2248C153.345 57.3137 153.405 57.3584 153.489 57.3584C153.571 57.3584 153.631 57.3133 153.668 57.2233C153.704 57.1332 153.722 56.9869 153.722 56.7839C153.722 56.5788 153.704 56.4314 153.667 56.3419C153.63 56.252 153.57 56.2075 153.489 56.2075C153.406 56.2075 153.346 56.2522 153.31 56.3419C153.275 56.4314 153.257 56.5788 153.257 56.7839Z" fill="white"/>
<path d="M116.019 42.4871C114.412 42.4871 113.103 43.7947 113.103 45.4025C113.103 47.0101 114.412 48.318 116.019 48.318C117.627 48.318 118.935 47.0099 118.935 45.4025C118.935 43.7947 117.627 42.4871 116.019 42.4871Z" fill="#8CD26E"/>
<path d="M116.019 41.6351C113.938 41.6351 112.251 43.3224 112.251 45.4027C112.251 47.199 115.058 51.9971 115.826 53.2785C115.867 53.3457 115.94 53.387 116.019 53.387C116.098 53.387 116.171 53.3459 116.211 53.2785C116.98 51.9984 119.787 47.199 119.787 45.4027C119.787 43.3224 118.1 41.6351 116.019 41.6351ZM116.019 48.318C114.412 48.318 113.103 47.0101 113.103 45.4025C113.103 43.7947 114.412 42.4871 116.019 42.4871C117.627 42.4871 118.935 43.7947 118.935 45.4025C118.935 47.0099 117.627 48.318 116.019 48.318Z" fill="white"/>
<path d="M114.094 45.4144C114.094 45.0834 114.164 44.8371 114.304 44.6755C114.444 44.5137 114.653 44.4329 114.933 44.4329C115.028 44.4329 115.102 44.4386 115.157 44.4501V44.7326C115.089 44.7173 115.022 44.7099 114.956 44.7099C114.835 44.7099 114.735 44.7281 114.659 44.7648C114.582 44.8013 114.525 44.8554 114.487 44.9275C114.448 44.999 114.426 45.1008 114.419 45.2329H114.434C114.509 45.1033 114.63 45.0382 114.796 45.0382C114.946 45.0382 115.063 45.0853 115.148 45.179C115.232 45.2728 115.275 45.4025 115.275 45.5682C115.275 45.7463 115.224 45.888 115.124 45.9917C115.023 46.096 114.883 46.1482 114.705 46.1482C114.581 46.1482 114.474 46.1194 114.382 46.0623C114.29 46.0053 114.219 45.9217 114.169 45.8119C114.119 45.7016 114.094 45.5695 114.094 45.4144ZM114.698 45.8653C114.773 45.8653 114.831 45.8401 114.872 45.7892C114.912 45.7385 114.932 45.6662 114.932 45.5724C114.932 45.491 114.913 45.4263 114.876 45.3796C114.838 45.3326 114.781 45.3092 114.705 45.3092C114.633 45.3092 114.571 45.3326 114.521 45.3794C114.47 45.4257 114.445 45.48 114.445 45.5419C114.445 45.6324 114.469 45.7092 114.516 45.7718C114.564 45.8341 114.625 45.8653 114.698 45.8653Z" fill="white"/>
<path d="M116.546 44.8265C116.546 44.9308 116.515 45.0197 116.452 45.0931C116.388 45.166 116.299 45.2165 116.185 45.2439V45.2509C116.32 45.2674 116.422 45.3083 116.492 45.3734C116.561 45.4388 116.595 45.527 116.595 45.6371C116.595 45.7982 116.537 45.9236 116.421 46.0131C116.304 46.1028 116.137 46.1477 115.921 46.1477C115.739 46.1477 115.579 46.1174 115.438 46.0574V45.7565C115.503 45.7893 115.574 45.8161 115.652 45.8364C115.73 45.8572 115.807 45.8674 115.883 45.8674C116 45.8674 116.086 45.8474 116.142 45.8078C116.198 45.7683 116.225 45.7045 116.225 45.6169C116.225 45.5384 116.194 45.4825 116.129 45.4498C116.065 45.4169 115.963 45.4006 115.823 45.4006H115.696V45.1296H115.825C115.955 45.1296 116.049 45.1124 116.109 45.0787C116.169 45.0445 116.199 44.9864 116.199 44.9041C116.199 44.7777 116.12 44.7143 115.961 44.7143C115.906 44.7143 115.85 44.7234 115.794 44.7419C115.737 44.7599 115.674 44.7917 115.604 44.8369L115.44 44.5932C115.593 44.4833 115.775 44.4284 115.986 44.4284C116.159 44.4284 116.296 44.4636 116.396 44.5336C116.496 44.6038 116.546 44.7014 116.546 44.8265Z" fill="white"/>
<path d="M117.941 45.289C117.941 45.581 117.893 45.7969 117.797 45.9375C117.702 46.0779 117.554 46.1481 117.355 46.1481C117.162 46.1481 117.017 46.0756 116.919 45.9305C116.821 45.7855 116.772 45.5719 116.772 45.289C116.772 44.9936 116.819 44.776 116.915 44.636C117.01 44.4963 117.157 44.4263 117.355 44.4263C117.548 44.4263 117.694 44.4997 117.793 44.646C117.892 44.7925 117.941 45.0067 117.941 45.289ZM117.123 45.289C117.123 45.4941 117.141 45.6411 117.176 45.7299C117.212 45.8188 117.271 45.8629 117.355 45.8629C117.438 45.8629 117.497 45.8179 117.534 45.7278C117.57 45.6379 117.589 45.4913 117.589 45.2888C117.589 45.0835 117.57 44.9361 117.533 44.8464C117.496 44.7571 117.437 44.7122 117.355 44.7122C117.272 44.7122 117.213 44.7571 117.177 44.8464C117.141 44.9363 117.123 45.0837 117.123 45.289Z" fill="white"/>
<path d="M103.845 92.7962C102.237 92.7962 100.928 94.1039 100.928 95.7117C100.928 97.3194 102.237 98.6273 103.845 98.6273C105.453 98.6273 106.761 97.3194 106.761 95.7117C106.761 94.1039 105.452 92.7962 103.845 92.7962Z" fill="#8CD26E"/>
<path d="M103.845 91.9441C101.764 91.9441 100.076 93.6314 100.076 95.7116C100.076 97.5082 102.883 102.306 103.652 103.587C103.692 103.655 103.765 103.696 103.845 103.696C103.924 103.696 103.997 103.655 104.037 103.587C104.806 102.307 107.613 97.5082 107.613 95.7116C107.613 93.6314 105.925 91.9441 103.845 91.9441ZM103.845 98.6273C102.237 98.6273 100.928 97.3194 100.928 95.7117C100.928 94.1039 102.237 92.7962 103.845 92.7962C105.452 92.7962 106.761 94.1039 106.761 95.7117C106.761 97.3194 105.453 98.6273 103.845 98.6273Z" fill="white"/>
<path d="M102.541 95.3661C102.703 95.3661 102.831 95.4113 102.927 95.5023C103.023 95.5933 103.07 95.7174 103.07 95.8751C103.07 96.062 103.013 96.206 102.898 96.3065C102.782 96.407 102.618 96.4575 102.403 96.4575C102.217 96.4575 102.067 96.4274 101.953 96.3669V96.0616C102.013 96.0934 102.083 96.1195 102.163 96.1396C102.243 96.1602 102.319 96.1699 102.391 96.1699C102.606 96.1699 102.714 96.0815 102.714 95.9046C102.714 95.736 102.603 95.652 102.379 95.652C102.339 95.652 102.294 95.6559 102.245 95.6641C102.196 95.672 102.157 95.6804 102.126 95.6898L101.985 95.6145L102.048 94.7617H102.955V95.0616H102.358L102.327 95.3899L102.367 95.3821C102.414 95.3712 102.472 95.3661 102.541 95.3661Z" fill="white"/>
<path d="M104.477 96.0878H104.275V96.4343H103.93V96.0878H103.216V95.8418L103.949 94.7617H104.275V95.8131H104.477V96.0878ZM103.93 95.8134V95.5296C103.93 95.4823 103.932 95.4138 103.935 95.3237C103.939 95.2335 103.942 95.1814 103.945 95.1672H103.935C103.907 95.2297 103.873 95.2906 103.834 95.35L103.527 95.8134H103.93Z" fill="white"/>
<path d="M105.767 95.5985C105.767 95.8907 105.719 96.1068 105.623 96.2472C105.527 96.3872 105.38 96.4576 105.181 96.4576C104.988 96.4576 104.842 96.3853 104.745 96.2404C104.647 96.0954 104.598 95.8814 104.598 95.5987C104.598 95.3035 104.645 95.0859 104.741 94.9459C104.836 94.8059 104.983 94.7359 105.181 94.7359C105.374 94.7359 105.52 94.8095 105.619 94.9559C105.717 95.1018 105.767 95.3162 105.767 95.5985ZM104.949 95.5985C104.949 95.8036 104.966 95.9507 105.002 96.0394C105.037 96.1282 105.097 96.1728 105.181 96.1728C105.263 96.1728 105.323 96.1274 105.359 96.0375C105.396 95.9478 105.414 95.8012 105.414 95.5985C105.414 95.393 105.396 95.246 105.359 95.1563C105.322 95.0666 105.262 95.0216 105.181 95.0216C105.098 95.0216 105.038 95.0666 105.002 95.1563C104.967 95.246 104.949 95.393 104.949 95.5985Z" fill="white"/>
<path d="M76.0686 125.724C74.4613 125.724 73.1521 127.031 73.1521 128.639C73.1521 130.247 74.4613 131.555 76.0686 131.555C77.6766 131.555 78.9843 130.247 78.9843 128.639C78.9843 127.031 77.6766 125.724 76.0686 125.724Z" fill="#00D7E1"/>
<path d="M76.0707 124.872C73.9894 124.872 72.3021 126.559 72.3021 128.639C72.3021 130.436 75.1087 135.234 75.8775 136.515C75.9178 136.582 75.991 136.624 76.0705 136.624C76.1494 136.624 76.2223 136.582 76.2624 136.515C77.0314 135.235 79.8383 130.436 79.8383 128.639C79.8385 126.559 78.1512 124.872 76.0707 124.872ZM76.0707 131.555C74.4633 131.555 73.1542 130.247 73.1542 128.639C73.1542 127.031 74.4633 125.724 76.0707 125.724C77.6787 125.724 78.9864 127.031 78.9864 128.639C78.9864 130.247 77.6787 131.555 76.0707 131.555Z" fill="white"/>
<path d="M74.7345 127.667C74.8946 127.667 75.0238 127.704 75.1218 127.776C75.2198 127.85 75.269 127.948 75.269 128.071C75.269 128.157 75.2452 128.233 75.1979 128.299C75.1506 128.366 75.0743 128.426 74.9691 128.479C75.0942 128.546 75.1839 128.616 75.2384 128.689C75.2931 128.761 75.3203 128.841 75.3203 128.928C75.3203 129.066 75.2666 129.176 75.1591 129.26C75.0516 129.343 74.9101 129.385 74.7347 129.385C74.5517 129.385 74.4081 129.346 74.3036 129.268C74.199 129.19 74.1466 129.08 74.1466 128.937C74.1466 128.842 74.1721 128.757 74.2228 128.683C74.2737 128.609 74.3551 128.544 74.4671 128.488C74.3717 128.428 74.3032 128.363 74.2612 128.295C74.2192 128.226 74.1982 128.151 74.1982 128.069C74.1982 127.95 74.2476 127.853 74.3468 127.779C74.4461 127.704 74.5752 127.667 74.7345 127.667ZM74.4739 128.916C74.4739 128.982 74.4966 129.033 74.5426 129.07C74.5884 129.106 74.6508 129.125 74.7301 129.125C74.8179 129.125 74.8834 129.106 74.9269 129.068C74.9704 129.03 74.9922 128.981 74.9922 128.919C74.9922 128.868 74.9706 128.82 74.9275 128.775C74.8845 128.731 74.8145 128.683 74.7176 128.633C74.5551 128.708 74.4739 128.802 74.4739 128.916ZM74.7324 127.926C74.672 127.926 74.6234 127.941 74.5865 127.972C74.5496 128.003 74.5309 128.045 74.5309 128.096C74.5309 128.142 74.5456 128.183 74.575 128.219C74.6043 128.256 74.6575 128.293 74.7345 128.331C74.8094 128.296 74.8616 128.26 74.8913 128.223C74.9209 128.186 74.9358 128.144 74.9358 128.096C74.9358 128.043 74.9167 128.002 74.8785 127.971C74.8406 127.941 74.7918 127.926 74.7324 127.926Z" fill="white"/>
<path d="M76.7032 129.015H76.5019V129.362H76.1564V129.015H75.4426V128.769L76.1757 127.689H76.5019V128.74H76.7032V129.015ZM76.1564 128.74V128.457C76.1564 128.409 76.1583 128.341 76.1621 128.251C76.166 128.161 76.1689 128.108 76.1713 128.094H76.1621C76.1339 128.157 76.1 128.218 76.0604 128.277L75.7537 128.74H76.1564Z" fill="white"/>
<path d="M77.9932 128.525C77.9932 128.818 77.9452 129.034 77.8496 129.174C77.754 129.314 77.6066 129.384 77.4076 129.384C77.2146 129.384 77.0692 129.312 76.9712 129.167C76.8732 129.022 76.8242 128.809 76.8242 128.526C76.8242 128.231 76.8719 128.013 76.9671 127.873C77.0624 127.733 77.2091 127.663 77.4076 127.663C77.6006 127.663 77.7465 127.736 77.8452 127.883C77.9438 128.029 77.9932 128.243 77.9932 128.525ZM77.1752 128.525C77.1752 128.73 77.193 128.878 77.2284 128.966C77.2638 129.055 77.3236 129.1 77.4074 129.1C77.4897 129.1 77.5491 129.055 77.5858 128.965C77.6222 128.875 77.6407 128.728 77.6407 128.525C77.6407 128.32 77.6223 128.173 77.5851 128.083C77.5482 127.993 77.4889 127.949 77.4072 127.949C77.3241 127.949 77.2647 127.993 77.2286 128.083C77.193 128.173 77.1752 128.32 77.1752 128.525Z" fill="white"/>
<path d="M127.637 62.4018C126.03 62.4018 124.721 63.7095 124.721 65.3171C124.721 66.9248 126.03 68.2327 127.637 68.2327C129.245 68.2327 130.553 66.9248 130.553 65.3171C130.553 63.7095 129.245 62.4018 127.637 62.4018Z" fill="#00D7E1"/>
<path d="M127.637 61.5497C125.556 61.5497 123.869 63.237 123.869 65.317C123.869 67.1133 126.676 71.9114 127.445 73.1928C127.485 73.26 127.558 73.3012 127.637 73.3012C127.717 73.3012 127.789 73.26 127.83 73.1928C128.599 71.9127 131.405 67.1133 131.405 65.317C131.405 63.237 129.718 61.5497 127.637 61.5497ZM127.637 68.2327C126.03 68.2327 124.721 66.9248 124.721 65.3171C124.721 63.7095 126.03 62.4018 127.637 62.4018C129.245 62.4018 130.553 63.7095 130.553 65.3171C130.553 66.9248 129.245 68.2327 127.637 68.2327Z" fill="white"/>
<path d="M125.713 65.3291C125.713 64.9983 125.783 64.7519 125.923 64.5903C126.063 64.4282 126.273 64.3476 126.552 64.3476C126.647 64.3476 126.722 64.3534 126.776 64.3648V64.6475C126.708 64.632 126.641 64.6246 126.575 64.6246C126.454 64.6246 126.355 64.6431 126.278 64.6796C126.202 64.716 126.144 64.7701 126.106 64.8422C126.068 64.9137 126.045 65.0155 126.039 65.1476H126.053C126.129 65.018 126.25 64.9529 126.416 64.9529C126.565 64.9529 126.683 64.9998 126.767 65.0937C126.852 65.1877 126.894 65.3173 126.894 65.4829C126.894 65.6613 126.844 65.8027 126.743 65.9064C126.643 66.0108 126.503 66.0627 126.324 66.0627C126.201 66.0627 126.093 66.0339 126.001 65.9768C125.909 65.9196 125.838 65.8362 125.789 65.7264C125.738 65.6161 125.713 65.484 125.713 65.3291ZM126.317 65.78C126.393 65.78 126.451 65.7546 126.491 65.7039C126.531 65.6532 126.552 65.5809 126.552 65.4871C126.552 65.4057 126.533 65.341 126.495 65.2944C126.457 65.2473 126.4 65.2237 126.324 65.2237C126.252 65.2237 126.191 65.2471 126.14 65.2937C126.09 65.34 126.064 65.3942 126.064 65.4562C126.064 65.5469 126.088 65.6235 126.136 65.6861C126.184 65.7486 126.244 65.78 126.317 65.78Z" fill="white"/>
<path d="M128.224 65.081C128.224 65.4108 128.155 65.6566 128.016 65.8188C127.878 65.9813 127.667 66.0625 127.386 66.0625C127.286 66.0625 127.212 66.0572 127.16 66.0464V65.7626C127.225 65.7788 127.292 65.7868 127.362 65.7868C127.48 65.7868 127.577 65.7696 127.654 65.7349C127.73 65.7001 127.788 65.6456 127.829 65.5711C127.869 65.4969 127.893 65.3945 127.898 65.2642H127.885C127.84 65.3357 127.789 65.3862 127.731 65.415C127.673 65.4439 127.601 65.4585 127.514 65.4585C127.368 65.4585 127.253 65.4116 127.17 65.3181C127.086 65.2248 127.044 65.095 127.044 64.9287C127.044 64.7495 127.095 64.6076 127.196 64.5037C127.298 64.3994 127.437 64.3476 127.612 64.3476C127.736 64.3476 127.844 64.3767 127.937 64.4346C128.029 64.4925 128.1 64.5767 128.15 64.6868C128.199 64.7973 128.224 64.9285 128.224 65.081ZM127.619 64.6316C127.546 64.6316 127.489 64.6566 127.447 64.7069C127.406 64.7572 127.386 64.8297 127.386 64.9241C127.386 65.0049 127.405 65.0689 127.442 65.1162C127.479 65.1637 127.536 65.1873 127.612 65.1873C127.684 65.1873 127.746 65.1637 127.797 65.1169C127.848 65.0698 127.873 65.0161 127.873 64.955C127.873 64.8641 127.849 64.7877 127.802 64.7251C127.754 64.663 127.693 64.6316 127.619 64.6316Z" fill="white"/>
<path d="M129.561 65.2035C129.561 65.4953 129.512 65.7115 129.417 65.8521C129.321 65.9925 129.174 66.0627 128.975 66.0627C128.782 66.0627 128.636 65.9901 128.538 65.8453C128.44 65.7002 128.391 65.4864 128.391 65.2037C128.391 64.9083 128.439 64.6907 128.534 64.5508C128.629 64.411 128.777 64.341 128.975 64.341C129.168 64.341 129.314 64.4142 129.412 64.5607C129.511 64.707 129.561 64.9213 129.561 65.2035ZM128.742 65.2035C128.742 65.4086 128.76 65.5556 128.796 65.6444C128.831 65.7333 128.891 65.7776 128.975 65.7776C129.057 65.7776 129.117 65.7327 129.153 65.6425C129.19 65.5526 129.208 65.4061 129.208 65.2035C129.208 64.9982 129.19 64.8508 129.153 64.7611C129.116 64.6718 129.057 64.6269 128.975 64.6269C128.892 64.6269 128.832 64.6718 128.796 64.7611C128.76 64.8511 128.742 64.9982 128.742 65.2035Z" fill="white"/>
<path d="M92.408 68.0167C90.8007 68.0167 89.4918 69.3241 89.4918 70.9321C89.4918 72.5399 90.8007 73.848 92.408 73.848C94.016 73.848 95.3237 72.5399 95.3237 70.9321C95.3237 69.3241 94.016 68.0167 92.408 68.0167Z" fill="#00D7E1"/>
<path d="M92.4082 67.1647C90.3271 67.1647 88.6398 68.852 88.6398 70.9321C88.6398 72.7284 91.4465 77.5265 92.2152 78.8076C92.2557 78.8751 92.3287 78.9164 92.4082 78.9164C92.4871 78.9164 92.5601 78.8753 92.6004 78.8076C93.3694 77.5275 96.176 72.7284 96.176 70.9321C96.176 68.852 94.4887 67.1647 92.4082 67.1647ZM92.408 73.848C90.8007 73.848 89.4918 72.5399 89.4918 70.9321C89.4918 69.3241 90.8007 68.0167 92.408 68.0167C94.016 68.0167 95.3237 69.3241 95.3237 70.9321C95.3237 72.5399 94.016 73.848 92.408 73.848Z" fill="white"/>
<path d="M91.5988 70.3563C91.5988 70.4609 91.5672 70.5497 91.5038 70.6227C91.4406 70.6961 91.3517 70.7463 91.2372 70.7735V70.7805C91.3723 70.7974 91.4745 70.8382 91.5439 70.9037C91.6132 70.9688 91.648 71.0566 91.648 71.1673C91.648 71.3283 91.5897 71.4534 91.473 71.5431C91.3564 71.6324 91.1897 71.6771 90.9732 71.6771C90.7916 71.6771 90.6306 71.6472 90.4905 71.5868V71.2861C90.5554 71.3189 90.6266 71.3455 90.7042 71.3662C90.7821 71.3866 90.8591 71.397 90.9354 71.397C91.0518 71.397 91.1382 71.3771 91.1939 71.3374C91.2497 71.2975 91.2775 71.2341 91.2775 71.1463C91.2775 71.0678 91.2455 71.0123 91.1814 70.9794C91.1174 70.9467 91.0152 70.9304 90.8748 70.9304H90.7477V70.6592H90.8771C91.0067 70.6592 91.1015 70.6424 91.1613 70.6083C91.2211 70.5741 91.251 70.5162 91.251 70.4337C91.251 70.3071 91.1717 70.2439 91.013 70.2439C90.9581 70.2439 90.9023 70.2528 90.8455 70.2711C90.7887 70.2895 90.7257 70.3209 90.6563 70.3659L90.4926 70.1224C90.6451 70.0123 90.827 69.9578 91.0383 69.9578C91.2113 69.9578 91.3481 69.9926 91.4484 70.063C91.5487 70.1336 91.5988 70.2312 91.5988 70.3563Z" fill="white"/>
<path d="M93.0014 71.6545H91.8322V71.4087L92.2521 70.9841C92.3764 70.8568 92.4576 70.7684 92.4956 70.7194C92.5338 70.6702 92.5613 70.6246 92.5781 70.5826C92.5948 70.5406 92.6033 70.4971 92.6033 70.4522C92.6033 70.3852 92.5849 70.3349 92.5478 70.3022C92.5109 70.2694 92.4612 70.253 92.3995 70.253C92.3348 70.253 92.2718 70.2679 92.2108 70.2978C92.1497 70.3275 92.0861 70.3697 92.0197 70.4248L91.8275 70.1968C91.9098 70.1268 91.9781 70.0772 92.0322 70.0484C92.0863 70.0191 92.1457 69.9971 92.2095 69.9814C92.2735 69.9657 92.3452 69.958 92.4245 69.958C92.5291 69.958 92.6214 69.9769 92.7013 70.0151C92.7813 70.0533 92.8436 70.1065 92.8877 70.1752C92.932 70.2439 92.9541 70.3224 92.9541 70.4108C92.9541 70.4878 92.9405 70.5603 92.9136 70.6276C92.8864 70.695 92.8447 70.7644 92.7876 70.8354C92.7308 70.906 92.6307 71.0072 92.4873 71.1383L92.2723 71.3408V71.3567H93.001L93.0014 71.6545Z" fill="white"/>
<path d="M94.3304 70.8184C94.3304 71.1107 94.2824 71.3268 94.1868 71.4672C94.0911 71.6076 93.9437 71.6776 93.7446 71.6776C93.5516 71.6776 93.4061 71.6052 93.3081 71.4604C93.2102 71.3155 93.1612 71.1015 93.1612 70.8186C93.1612 70.5236 93.2089 70.306 93.3041 70.1661C93.3993 70.0261 93.5463 69.9561 93.7446 69.9561C93.9376 69.9561 94.0835 70.0293 94.1823 70.1758C94.2809 70.3217 94.3304 70.5364 94.3304 70.8184ZM93.5124 70.8184C93.5124 71.0235 93.5302 71.1707 93.5656 71.2593C93.601 71.3482 93.6606 71.3929 93.7446 71.3929C93.8269 71.3929 93.8865 71.3478 93.923 71.2579C93.9596 71.1677 93.9779 71.0214 93.9779 70.8184C93.9779 70.6133 93.9594 70.4657 93.9223 70.3764C93.8854 70.2865 93.826 70.242 93.7444 70.242C93.6612 70.242 93.6019 70.2865 93.5658 70.3764C93.5302 70.4657 93.5124 70.6133 93.5124 70.8184Z" fill="white"/>
<path d="M120.14 114.351C118.533 114.351 117.224 115.659 117.224 117.267C117.224 118.874 118.533 120.182 120.14 120.182C121.748 120.182 123.056 118.874 123.056 117.267C123.056 115.659 121.748 114.351 120.14 114.351Z" fill="#00D2AA"/>
<path d="M120.138 113.499C118.057 113.499 116.37 115.187 116.37 117.267C116.37 119.063 119.177 123.861 119.946 125.143C119.986 125.21 120.059 125.251 120.138 125.251C120.218 125.251 120.29 125.21 120.33 125.143C121.099 123.863 123.906 119.063 123.906 117.267C123.906 115.187 122.219 113.499 120.138 113.499ZM120.138 120.183C118.531 120.183 117.222 118.874 117.222 117.267C117.222 115.659 118.531 114.352 120.138 114.352C121.746 114.352 123.054 115.659 123.054 117.267C123.054 118.874 121.746 120.183 120.138 120.183Z" fill="white"/>
<path d="M118.805 116.295C118.964 116.295 119.094 116.331 119.192 116.405C119.29 116.477 119.338 116.575 119.338 116.699C119.338 116.784 119.315 116.86 119.267 116.927C119.22 116.994 119.144 117.053 119.039 117.106C119.164 117.173 119.254 117.243 119.308 117.316C119.363 117.389 119.39 117.469 119.39 117.556C119.39 117.693 119.336 117.804 119.229 117.887C119.121 117.971 118.98 118.013 118.804 118.013C118.621 118.013 118.478 117.974 118.373 117.896C118.268 117.818 118.216 117.708 118.216 117.565C118.216 117.47 118.242 117.385 118.292 117.311C118.343 117.237 118.424 117.172 118.536 117.116C118.441 117.055 118.373 116.991 118.33 116.922C118.289 116.854 118.267 116.779 118.267 116.697C118.267 116.577 118.317 116.48 118.416 116.406C118.516 116.332 118.645 116.295 118.805 116.295ZM118.543 117.544C118.543 117.61 118.566 117.661 118.612 117.697C118.658 117.734 118.721 117.752 118.8 117.752C118.887 117.752 118.953 117.734 118.996 117.696C119.04 117.658 119.062 117.608 119.062 117.546C119.062 117.495 119.04 117.448 118.997 117.403C118.954 117.358 118.884 117.311 118.787 117.26C118.625 117.335 118.543 117.43 118.543 117.544ZM118.802 116.553C118.742 116.553 118.693 116.569 118.656 116.6C118.619 116.631 118.601 116.672 118.601 116.724C118.601 116.77 118.616 116.811 118.645 116.847C118.674 116.883 118.727 116.92 118.805 116.958C118.879 116.923 118.931 116.887 118.961 116.851C118.991 116.814 119.006 116.772 119.006 116.724C119.006 116.671 118.987 116.63 118.948 116.599C118.91 116.569 118.862 116.553 118.802 116.553Z" fill="white"/>
<path d="M120.727 117.03C120.727 117.36 120.658 117.606 120.519 117.768C120.381 117.931 120.17 118.012 119.889 118.012C119.789 118.012 119.715 118.007 119.663 117.996V117.712C119.727 117.728 119.795 117.736 119.865 117.736C119.983 117.736 120.08 117.719 120.156 117.684C120.232 117.65 120.291 117.595 120.331 117.521C120.372 117.446 120.395 117.344 120.401 117.214H120.388C120.343 117.285 120.292 117.336 120.234 117.365C120.176 117.394 120.104 117.408 120.017 117.408C119.871 117.408 119.756 117.361 119.672 117.268C119.589 117.175 119.546 117.045 119.546 116.879C119.546 116.699 119.597 116.557 119.699 116.454C119.801 116.349 119.94 116.297 120.115 116.297C120.238 116.297 120.347 116.327 120.439 116.384C120.532 116.442 120.603 116.526 120.653 116.636C120.703 116.747 120.727 116.878 120.727 117.03ZM120.122 116.581C120.049 116.581 119.992 116.606 119.95 116.657C119.909 116.707 119.889 116.779 119.889 116.874C119.889 116.954 119.907 117.019 119.945 117.066C119.982 117.113 120.039 117.137 120.115 117.137C120.187 117.137 120.248 117.113 120.3 117.067C120.351 117.019 120.376 116.966 120.376 116.905C120.376 116.814 120.352 116.737 120.304 116.675C120.257 116.612 120.196 116.581 120.122 116.581Z" fill="white"/>
<path d="M122.061 117.153C122.061 117.445 122.013 117.661 121.917 117.802C121.822 117.942 121.674 118.012 121.475 118.012C121.282 118.012 121.137 117.94 121.039 117.795C120.941 117.65 120.892 117.436 120.892 117.153C120.892 116.858 120.94 116.64 121.035 116.5C121.13 116.361 121.277 116.291 121.475 116.291C121.668 116.291 121.814 116.364 121.913 116.51C122.012 116.657 122.061 116.871 122.061 117.153ZM121.243 117.153C121.243 117.358 121.261 117.505 121.296 117.594C121.332 117.683 121.391 117.727 121.475 117.727C121.558 117.727 121.617 117.682 121.654 117.592C121.691 117.502 121.709 117.356 121.709 117.153C121.709 116.948 121.69 116.801 121.653 116.711C121.616 116.621 121.557 116.576 121.475 116.576C121.392 116.576 121.333 116.621 121.297 116.711C121.261 116.801 121.243 116.948 121.243 117.153Z" fill="white"/>
<path d="M59.0393 95.0713C57.4319 95.0713 56.1228 96.3788 56.1228 97.9868C56.1228 99.5941 57.4317 100.902 59.0393 100.902C60.6472 100.902 61.9549 99.5941 61.9549 97.9868C61.9551 96.3788 60.6472 95.0713 59.0393 95.0713Z" fill="#00AAE1"/>
<path d="M59.0394 94.2194C56.9581 94.2194 55.2708 95.9067 55.2708 97.987C55.2708 99.7831 58.0775 104.581 58.8462 105.863C58.8867 105.93 58.9597 105.971 59.0392 105.971C59.1183 105.971 59.1911 105.93 59.2314 105.863C60.0004 104.582 62.807 99.7831 62.807 97.987C62.8072 95.9067 61.1199 94.2194 59.0394 94.2194ZM59.0393 100.902C57.4317 100.902 56.1228 99.5941 56.1228 97.9868C56.1228 96.3788 57.4319 95.0713 59.0393 95.0713C60.6472 95.0713 61.9551 96.3788 61.9549 97.9868C61.9549 99.5941 60.6472 100.902 59.0393 100.902Z" fill="white"/>
<path d="M57.9991 98.7092H57.6456V97.7413L57.649 97.5825L57.6547 97.4086C57.596 97.4673 57.5552 97.5057 57.5323 97.5239L57.3402 97.6785L57.1697 97.4658L57.7084 97.037H57.9989L57.9991 98.7092Z" fill="white"/>
<path d="M58.4519 97.9986C58.4519 97.6677 58.5219 97.4215 58.6618 97.2597C58.8018 97.0981 59.0114 97.0173 59.2905 97.0173C59.3857 97.0173 59.4605 97.0228 59.5146 97.0343V97.3167C59.4468 97.3017 59.3797 97.294 59.3134 97.294C59.192 97.294 59.093 97.3125 59.0164 97.3492C58.9399 97.3857 58.8824 97.44 58.8442 97.5116C58.8061 97.5831 58.7836 97.6849 58.7768 97.817H58.7916C58.8674 97.6875 58.988 97.6226 59.1545 97.6226C59.304 97.6226 59.4211 97.6694 59.5057 97.7634C59.5903 97.8571 59.6327 97.9869 59.6327 98.1521C59.6327 98.3307 59.5823 98.4719 59.4817 98.5759C59.381 98.68 59.2415 98.7319 59.0629 98.7319C58.9392 98.7319 58.8317 98.7033 58.7399 98.6463C58.6481 98.5892 58.577 98.5057 58.5272 98.3958C58.4769 98.2859 58.4519 98.1536 58.4519 97.9986ZM59.0559 98.4495C59.1314 98.4495 59.1893 98.4242 59.2298 98.3735C59.2701 98.3231 59.2905 98.2505 59.2905 98.1566C59.2905 98.0749 59.2716 98.0107 59.2338 97.9638C59.1961 97.9169 59.139 97.8936 59.0627 97.8936C58.991 97.8936 58.9299 97.9165 58.879 97.9634C58.8283 98.0098 58.8031 98.0643 58.8031 98.1258C58.8031 98.2168 58.8268 98.2932 58.8746 98.3557C58.9223 98.4183 58.9827 98.4495 59.0559 98.4495Z" fill="white"/>
<path d="M60.9614 97.8727C60.9614 98.1648 60.9134 98.3809 60.8178 98.5215C60.7219 98.6619 60.5748 98.7319 60.3758 98.7319C60.1828 98.7319 60.0373 98.6593 59.9394 98.5145C59.8414 98.3696 59.7924 98.1561 59.7924 97.873C59.7924 97.5777 59.8401 97.3604 59.9353 97.2204C60.0308 97.0806 60.1775 97.0106 60.3758 97.0106C60.5688 97.0106 60.7145 97.0836 60.8133 97.2302C60.912 97.3765 60.9614 97.5909 60.9614 97.8727ZM60.1434 97.8727C60.1434 98.078 60.161 98.2248 60.1966 98.3139C60.232 98.4027 60.2916 98.4471 60.3756 98.4471C60.4579 98.4471 60.5173 98.4021 60.554 98.312C60.5907 98.2218 60.6089 98.0757 60.6089 97.8727C60.6089 97.6677 60.5904 97.5203 60.5535 97.4306C60.5164 97.3411 60.457 97.2963 60.3756 97.2963C60.2925 97.2963 60.2329 97.3411 60.197 97.4306C60.1612 97.5203 60.1434 97.6679 60.1434 97.8727Z" fill="white"/>
</svg>
