<svg width="244" height="178" viewBox="0 0 244 178" fill="none" xmlns="http://www.w3.org/2000/svg">
<path d="M211 89C211 138.153 171.153 178 122 178C72.8467 178 33 138.153 33 89C33 39.8467 72.8467 0 122 0C171.153 0 211 39.8467 211 89Z" fill="#F0F9FF"/>
<path d="M160.385 26.1483C159.379 26.1483 158.559 26.9672 158.559 27.9741V113.626C158.559 114.632 159.379 115.452 160.385 115.452H219.188C220.195 115.452 221.014 114.632 221.014 113.626V27.9741C221.014 26.9672 220.195 26.1483 219.188 26.1483H160.385ZM219.188 115.533H160.385C159.334 115.533 158.478 114.677 158.478 113.626V27.9741C158.478 26.9226 159.334 26.067 160.385 26.067H219.188C220.24 26.067 221.095 26.9226 221.095 27.9741V113.626C221.095 114.677 220.24 115.533 219.188 115.533Z" fill="#DADBD8"/>
<path d="M92.5766 26.1483C91.57 26.1483 90.7512 26.9672 90.7512 27.9741V113.626C90.7512 114.632 91.57 115.452 92.5766 115.452H151.38C152.387 115.452 153.205 114.632 153.205 113.626V27.9741C153.205 26.9672 152.387 26.1483 151.38 26.1483H92.5766ZM151.38 115.533H92.5766C91.5251 115.533 90.6698 114.677 90.6698 113.626V27.9741C90.6698 26.9226 91.5251 26.067 92.5766 26.067H151.38C152.431 26.067 153.287 26.9226 153.287 27.9741V113.626C153.287 114.677 152.431 115.533 151.38 115.533Z" fill="#DADBD8"/>
<path d="M24.8119 26.1483C23.8053 26.1483 22.9862 26.9672 22.9862 27.9741V113.626C22.9862 114.632 23.8053 115.452 24.8119 115.452H83.6147C84.6216 115.452 85.4408 114.632 85.4408 113.626V27.9741C85.4408 26.9672 84.6216 26.1483 83.6147 26.1483H24.8119ZM83.6147 115.533H24.8119C23.7604 115.533 22.905 114.677 22.905 113.626V27.9741C22.905 26.9226 23.7604 26.067 24.8119 26.067H83.6147C84.6665 26.067 85.5222 26.9226 85.5222 27.9741V113.626C85.5222 114.677 84.6665 115.533 83.6147 115.533Z" fill="#DADBD8"/>
<path d="M0 130.683H244V130.644H0V130.683Z" fill="#DADBD8"/>
<path d="M212.646 144.958H230.777V145.095H212.646V144.958Z" fill="#E7E8E5"/>
<path d="M161.054 146.443H165.813V146.58H161.054V146.443Z" fill="#E7E8E5"/>
<path d="M13.2232 140.794H36.8666V140.931H13.2232V140.794Z" fill="#E7E8E5"/>
<path d="M41.7397 140.931H45.2066V140.794H41.7397V140.931Z" fill="#E7E8E5"/>
<path d="M56.4731 143.242H107.75V143.106H56.4731V143.242Z" fill="#E7E8E5"/>
<path d="M199.354 63.8883C198.534 63.2692 197.338 63.1989 196.452 63.7181C195.275 61.3406 191.996 60.2911 189.658 61.5439C189.048 58.9819 186.523 57.0127 183.89 57.0443C181.256 57.0758 178.78 59.1052 178.232 61.6815C178.145 62.0908 178.087 62.5395 177.794 62.8384C177.319 63.3242 176.525 63.1612 175.847 63.1081C173.714 62.9419 171.568 64.4394 170.988 66.4984L200.359 66.3914C200.616 65.3969 200.173 64.5077 199.354 63.8883Z" fill="#DADBD8"/>
<path d="M107.628 45.6166C106.809 44.9975 105.613 44.9272 104.727 45.4464C103.55 43.0689 100.271 42.0194 97.9326 43.2722C97.3226 40.7102 94.798 38.741 92.1647 38.7725C89.5312 38.8041 87.0547 40.8335 86.5065 43.4098C86.4194 43.8191 86.3618 44.2674 86.069 44.5667C85.5933 45.0524 84.7992 44.8895 84.1212 44.8364C81.9883 44.6702 79.8424 46.1677 79.2624 48.2267L108.633 48.1197C108.891 47.1251 108.448 46.236 107.628 45.6166Z" fill="#DADBD8"/>
<path d="M32.4558 36.0141C32.046 35.7044 31.4481 35.6692 31.0048 35.9288C30.4166 34.7401 28.777 34.2153 27.6079 34.8416C27.3029 33.5607 26.0407 32.576 24.724 32.5919C23.4072 32.6078 22.1691 33.6225 21.895 34.9105C21.8514 35.1152 21.8225 35.3393 21.6761 35.489C21.4384 35.732 21.0412 35.6503 20.7023 35.624C19.6358 35.5407 18.5628 36.2893 18.2728 37.319L32.9584 37.2653C33.0869 36.7682 32.8657 36.3235 32.4558 36.0141Z" fill="#EDEDEB"/>
<path d="M177.128 38.0174C176.718 37.708 176.12 37.6729 175.677 37.9325C175.089 36.7434 173.449 36.219 172.28 36.8453C171.975 35.5641 170.713 34.5796 169.396 34.5952C168.079 34.6112 166.841 35.6259 166.567 36.9139C166.524 37.1189 166.495 37.343 166.348 37.4923C166.11 37.7354 165.714 37.654 165.375 37.6274C164.308 37.5441 163.235 38.293 162.945 39.3223L177.631 39.269C177.759 38.7719 177.538 38.3271 177.128 38.0174Z" fill="#EDEDEB"/>
<path d="M133.958 28.4227C133.548 28.113 132.95 28.0778 132.507 28.3375C131.919 27.1487 130.279 26.6239 129.11 27.2502C128.805 25.9694 127.543 24.9846 126.226 25.0002C124.909 25.0161 123.671 26.0308 123.397 27.3188C123.354 27.5238 123.325 27.748 123.178 27.8973C122.94 28.1403 122.544 28.059 122.205 28.0323C121.138 27.949 120.065 28.6979 119.775 29.7273L134.46 29.6739C134.589 29.1768 134.368 28.7321 133.958 28.4227Z" fill="#EDEDEB"/>
<path d="M40.8139 81.0057C40.404 80.696 39.806 80.6608 39.3629 80.9204C38.7744 79.7317 37.135 79.2072 35.9658 79.8335C35.6609 78.5523 34.3986 77.5679 33.082 77.5835C31.7652 77.5994 30.527 78.6142 30.2529 79.9022C30.2093 80.1068 30.1806 80.3313 30.0341 80.4806C29.7963 80.7236 29.3992 80.642 29.0602 80.6156C27.9939 80.5323 26.9208 81.2812 26.6308 82.3106L41.3162 82.2572C41.445 81.7601 41.2235 81.3154 40.8139 81.0057Z" fill="#EDEDEB"/>
<path d="M228.148 52.105C227.602 51.6922 226.805 51.6457 226.213 51.9915C225.429 50.4068 223.244 49.7073 221.685 50.5425C221.278 48.8345 219.596 47.5217 217.84 47.5429C216.085 47.5637 214.434 48.9168 214.068 50.6339C214.01 50.9068 213.972 51.2058 213.777 51.4053C213.46 51.729 212.93 51.6203 212.478 51.5852C211.057 51.4742 209.626 52.4723 209.24 53.8449L228.818 53.7737C228.99 53.1106 228.694 52.5179 228.148 52.105Z" fill="#EDEDEB"/>
<path d="M76.7857 74.9626V73.3444C76.7695 73.2384 76.6702 73.1655 76.5639 73.1818C76.4802 73.1948 76.4142 73.2605 76.4015 73.3444V75.1211C76.4038 75.2249 76.4874 75.3085 76.5912 75.3108C77.0183 75.3108 77.3642 75.6569 77.3642 76.0837C77.3642 76.5109 77.0183 76.8571 76.5912 76.8571C76.1643 76.8571 75.8182 76.5109 75.8182 76.0837C75.8182 75.8397 75.407 75.8397 75.434 76.0837C75.529 77.0422 76.6501 77.6753 77.4139 76.9065C77.8584 76.4471 77.8463 75.7145 77.3869 75.2701C77.2214 75.1103 77.0122 75.0033 76.7857 74.9626Z" fill="#E3E3E1"/>
<path d="M48.3962 75.0983L45.1507 71.857H48.4053L48.3962 75.0983ZM48.3962 83.3393L45.1507 80.098H48.4053L48.3962 83.3393ZM48.3962 91.5761L45.1594 88.3302H48.4053L48.3962 91.5761ZM45.1507 96.0605L48.3962 92.8146V96.0605H45.1507ZM48.0302 92.4437L44.7889 95.685V92.4437H48.0302ZM48.3962 84.5691V87.8104H45.1594L48.3962 84.5691ZM48.0302 84.2073L44.7889 87.4486V84.2073H48.0302ZM48.3962 76.3326V79.5739H45.1594L48.3962 76.3326ZM48.0302 75.9663L44.7889 79.2121V75.9663H48.0302ZM48.3962 68.0916V71.3326H45.1594L48.3962 68.0916ZM48.0302 67.7298L44.7889 70.9711V67.7298H48.0302ZM44.7889 63.9732L48.0302 67.2145H44.798L44.7889 63.9732ZM44.7889 72.2096L48.0302 75.4555H44.798L44.7889 72.2096ZM44.7889 80.4507L48.0302 83.692H44.798L44.7889 80.4507ZM44.7889 88.6871L48.0393 91.9466H44.798L44.7889 88.6871ZM48.4053 63.372V66.8709L44.7212 63.1911L44.5403 63.372H44.2827V96.5804H48.9161V63.372H48.4053Z" fill="#EDEDEB"/>
<path d="M45.6617 55.5376L47.8766 53.3227V55.5376H45.6617ZM47.8766 58.2502L45.6617 56.035H47.8766V58.2502ZM47.5106 52.9476L45.3 55.1579V52.9476H47.5106ZM44.7983 52.4323V58.8694H45.3136V56.4014L47.9625 59.0502L48.1434 58.8694H48.401V52.4323H44.7983Z" fill="#EDEDEB"/>
<path d="M30.165 63.372H36.3447V69.5517H30.165V63.372Z" fill="#DADBD8"/>
<path d="M76.6772 72.2822H76.3336V60.4065L47.5647 50.8635H45.6615L30.2553 60.429L30.0744 60.1352L45.562 50.5242H47.6187L47.6461 50.5333L76.6772 60.1577V72.2822Z" fill="#DADBD8"/>
<path d="M70.9451 60.5377H73.1603V62.7526L70.9451 60.5377ZM70.5834 63.1143V60.9037L72.794 63.1143H70.5834ZM70.068 63.1143H67.8577L70.068 60.9037V63.1143ZM67.4914 60.5377H69.7066L67.4914 62.7526V60.5377ZM66.9806 63.1143H64.7654L66.9806 60.9037V63.1143ZM64.404 60.5377H66.6143L64.404 62.7526V60.5377ZM63.8886 62.7526L61.678 60.5377H63.8886V62.7526ZM61.3162 63.1143V60.9037L63.5269 63.1143H61.3162ZM60.8009 63.1143H58.5769L60.7872 60.9037L60.8009 63.1143ZM58.2243 60.5377H60.4391L58.2243 62.7526V60.5377ZM57.7135 62.7526L55.4983 60.5377H57.7135V62.7526ZM55.1365 63.1143V60.9037L57.3472 63.1143H55.1365ZM54.6212 63.1143H52.4106L54.6212 60.9037V63.1143ZM52.0446 60.5377H54.2598L52.0446 62.7526V60.5377ZM51.5338 62.7526L49.3186 60.5377H51.5338V62.7526ZM48.9568 63.1143V60.9037L51.1675 63.1143H48.9568ZM48.4415 63.1143H46.2312L48.4415 60.9037V63.1143ZM45.8694 60.5377H48.08L45.8694 62.7526V60.5377ZM45.3541 62.7526L43.1434 60.5377H45.3541V62.7526ZM42.7774 63.1143V60.9037L44.9923 63.1143H42.7774ZM42.2663 63.1143H40.0424L42.2576 60.9037L42.2663 63.1143ZM39.6897 60.5377H41.9003L39.6897 62.7526V60.5377ZM39.1744 62.7526L36.9637 60.5377H39.1744V62.7526ZM36.5977 63.1143V60.9037L38.8126 63.1143H36.5977ZM36.087 63.1143H33.8718L36.087 60.9037V63.1143ZM33.51 60.5377H35.7252L33.51 62.7526V60.5377ZM32.9947 62.7526L30.7842 60.5377H32.9947V62.7526ZM30.4225 63.1143V60.9037L32.6332 63.1143H30.4225ZM73.6711 60.5377H75.8863L73.6711 62.7526V60.5377ZM73.4948 63.6388L77.1112 60.0224H29.9072V63.6388H73.4948Z" fill="#EDEDEB"/>
<path d="M51.1994 64.7732H41.7059L42.054 60.7772C42.1457 59.6974 43.0498 58.8681 44.1335 58.8694H48.654C49.7149 58.8694 50.6073 59.6645 50.729 60.7183L51.1994 64.7732Z" fill="#EDEDEB"/>
<path d="M43.2337 60.5286H45.0602V62.3547H43.2337V60.5286Z" fill="#F7F7F6"/>
<path d="M45.5394 60.5286H47.3655V62.3547H45.5394V60.5286Z" fill="#F7F7F6"/>
<path d="M47.845 60.5286H49.6714V62.3547H47.845V60.5286Z" fill="#F7F7F6"/>
<path d="M46.6018 50.2035C47.2883 50.2035 47.8449 50.7601 47.8449 51.4466C47.8449 52.133 47.2883 52.6897 46.6018 52.6897C45.9154 52.6897 45.3587 52.133 45.3587 51.4466C45.3587 50.7601 45.9154 50.2035 46.6018 50.2035Z" fill="#DADBD8"/>
<path d="M76.5912 74.4112C76.0039 74.4089 75.529 73.932 75.529 73.3445V72.2822H77.6537V73.3445C77.6537 73.932 77.1787 74.4089 76.5912 74.4112Z" fill="#DADBD8"/>
<path d="M127.846 130.295H162.356V52.2852H127.846V130.295Z" fill="#DADBD8"/>
<path d="M134.473 43.9447V52.2853H155.729V43.9447H134.473Z" fill="#DADBD8"/>
<path d="M163.07 52.3305H127.136V51.4306H163.07V52.3305Z" fill="#EDEDEB"/>
<path d="M156.633 43.9493H133.573V43.0497H156.633V43.9493Z" fill="#EDEDEB"/>
<path d="M120.653 130.295H155.164V52.2852H120.653V130.295Z" fill="#EDEDEB"/>
<path d="M127.281 43.9447V52.2853H148.537V43.9447H127.281Z" fill="#EDEDEB"/>
<path d="M122.86 54.4959H127.276V58.9123H122.86V54.4959Z" fill="white"/>
<path d="M131.417 54.4959H135.834V58.9123H131.417V54.4959Z" fill="white"/>
<path d="M139.975 54.4959H144.391V58.9123H139.975V54.4959Z" fill="white"/>
<path d="M148.537 54.4959H152.953V58.9123H148.537V54.4959Z" fill="white"/>
<path d="M122.86 62.5245H127.276V66.9409H122.86V62.5245Z" fill="white"/>
<path d="M131.417 62.5245H135.834V66.9409H131.417V62.5245Z" fill="white"/>
<path d="M139.975 62.5245H144.391V66.9409H139.975V62.5245Z" fill="white"/>
<path d="M148.537 62.5245H152.953V66.9409H148.537V62.5245Z" fill="white"/>
<path d="M122.86 70.553H127.276V74.9695H122.86V70.553Z" fill="white"/>
<path d="M131.417 70.553H135.834V74.9695H131.417V70.553Z" fill="white"/>
<path d="M139.975 70.553H144.391V74.9695H139.975V70.553Z" fill="white"/>
<path d="M131.417 47.5566H135.834V51.9733H131.417V47.5566Z" fill="white"/>
<path d="M139.975 47.5566H144.391V51.9733H139.975V47.5566Z" fill="white"/>
<path d="M148.537 70.553H152.953V74.9695H148.537V70.553Z" fill="white"/>
<path d="M122.86 78.5771H127.276V82.9935H122.86V78.5771Z" fill="white"/>
<path d="M131.417 78.5771H135.834V82.9935H131.417V78.5771Z" fill="white"/>
<path d="M139.975 78.5771H144.391V82.9935H139.975V78.5771Z" fill="white"/>
<path d="M148.537 78.5771H152.953V82.9935H148.537V78.5771Z" fill="white"/>
<path d="M122.86 86.6056H127.276V91.022H122.86V86.6056Z" fill="white"/>
<path d="M131.417 86.6056H135.834V91.022H131.417V86.6056Z" fill="white"/>
<path d="M139.975 86.6056H144.391V91.022H139.975V86.6056Z" fill="white"/>
<path d="M148.537 86.6056H152.953V91.022H148.537V86.6056Z" fill="white"/>
<path d="M122.86 94.6342H127.276V99.0506H122.86V94.6342Z" fill="white"/>
<path d="M131.417 94.6342H135.834V99.0506H131.417V94.6342Z" fill="white"/>
<path d="M139.975 94.6342H144.391V99.0506H139.975V94.6342Z" fill="white"/>
<path d="M148.537 94.6342H152.953V99.0506H148.537V94.6342Z" fill="white"/>
<path d="M122.86 107.079H127.276V102.663H122.86V107.079Z" fill="white"/>
<path d="M131.417 107.079H135.834V102.663H131.417V107.079Z" fill="white"/>
<path d="M139.975 107.079H144.391V102.663H139.975V107.079Z" fill="white"/>
<path d="M148.537 107.079H152.953V102.663H148.537V107.079Z" fill="white"/>
<path d="M122.86 114.667H127.276V110.25H122.86V114.667Z" fill="white"/>
<path d="M131.417 114.667H135.834V110.25H131.417V114.667Z" fill="white"/>
<path d="M139.975 114.667H144.391V110.25H139.975V114.667Z" fill="white"/>
<path d="M148.537 114.667H152.953V110.25H148.537V114.667Z" fill="white"/>
<path d="M122.86 122.255H127.276V117.838H122.86V122.255Z" fill="white"/>
<path d="M131.417 122.255H135.834V117.838H131.417V122.255Z" fill="white"/>
<path d="M139.975 122.255H144.391V117.838H139.975V122.255Z" fill="white"/>
<path d="M148.537 122.255H152.953V117.838H148.537V122.255Z" fill="white"/>
<path d="M122.86 129.843H127.276V125.426H122.86V129.843Z" fill="white"/>
<path d="M131.417 129.843H135.834V125.426H131.417V129.843Z" fill="white"/>
<path d="M139.975 129.843H144.391V125.426H139.975V129.843Z" fill="white"/>
<path d="M148.537 129.843H152.953V125.426H148.537V129.843Z" fill="white"/>
<path d="M155.874 52.3305H119.939V51.4306H155.874V52.3305Z" fill="#EDEDEB"/>
<path d="M149.436 43.9493H126.377V43.0497H149.436V43.9493Z" fill="#EDEDEB"/>
<path d="M174.426 130.553H205.831V76.251H174.426V130.553Z" fill="#DADBD8"/>
<path d="M206.477 76.292H173.78V75.4738H206.477V76.292Z" fill="#EDEDEB"/>
<path d="M167.88 130.553H199.285V76.251H167.88V130.553Z" fill="#EDEDEB"/>
<path d="M169.892 78.2628H173.911V82.2816H169.892V78.2628Z" fill="white"/>
<path d="M177.677 78.2628H181.696V82.2816H177.677V78.2628Z" fill="white"/>
<path d="M185.465 78.2628H189.484V82.2816H185.465V78.2628Z" fill="white"/>
<path d="M193.255 78.2628H197.273V82.2816H193.255V78.2628Z" fill="white"/>
<path d="M169.892 85.5681H173.911V89.587H169.892V85.5681Z" fill="white"/>
<path d="M177.677 85.5681H181.696V89.587H177.677V85.5681Z" fill="white"/>
<path d="M185.465 85.5681H189.484V89.587H185.465V85.5681Z" fill="white"/>
<path d="M193.255 85.5681H197.273V89.587H193.255V85.5681Z" fill="white"/>
<path d="M169.892 92.869H173.911V96.8878H169.892V92.869Z" fill="white"/>
<path d="M177.677 92.869H181.696V96.8878H177.677V92.869Z" fill="white"/>
<path d="M185.465 92.869H189.484V96.8878H185.465V92.869Z" fill="white"/>
<path d="M193.255 92.869H197.273V96.8878H193.255V92.869Z" fill="white"/>
<path d="M169.892 100.174H173.911V104.193H169.892V100.174Z" fill="white"/>
<path d="M177.677 100.174H181.696V104.193H177.677V100.174Z" fill="white"/>
<path d="M185.465 100.174H189.484V104.193H185.465V100.174Z" fill="white"/>
<path d="M193.255 100.174H197.273V104.193H193.255V100.174Z" fill="white"/>
<path d="M169.892 111.498H173.911V107.479H169.892V111.498Z" fill="white"/>
<path d="M177.677 111.498H181.695V107.479H177.677V111.498Z" fill="white"/>
<path d="M185.465 111.498H189.484V107.479H185.465V111.498Z" fill="white"/>
<path d="M193.255 111.498H197.274V107.479H193.255V111.498Z" fill="white"/>
<path d="M169.892 118.804H173.911V114.785H169.892V118.804Z" fill="white"/>
<path d="M177.677 118.804H181.695V114.785H177.677V118.804Z" fill="white"/>
<path d="M185.465 118.804H189.484V114.785H185.465V118.804Z" fill="white"/>
<path d="M193.255 114.785H197.273V118.804H193.255V114.785Z" fill="white"/>
<path d="M169.892 126.109H173.911V122.09H169.892V126.109Z" fill="white"/>
<path d="M177.677 126.109H181.695V122.09H177.677V126.109Z" fill="white"/>
<path d="M185.465 126.109H189.484V122.09H185.465V126.109Z" fill="white"/>
<path d="M193.255 126.109H197.274V122.09H193.255V126.109Z" fill="white"/>
<path d="M199.931 76.292H167.234V75.4738H199.931V76.292Z" fill="#EDEDEB"/>
<path d="M79.6469 130.548H114.157V70.8761H79.6469V130.548Z" fill="#DADBD8"/>
<path d="M86.2745 62.5356V70.8761H107.53V62.5356H86.2745Z" fill="#DADBD8"/>
<path d="M114.872 70.9213H78.9378V70.0218H114.872V70.9213Z" fill="#EDEDEB"/>
<path d="M108.434 62.5401H85.3747V61.6406H108.434V62.5401Z" fill="#EDEDEB"/>
<path d="M72.4551 130.548H106.966V70.8761H72.4551V130.548Z" fill="#EDEDEB"/>
<path d="M79.0822 62.5356V70.8761H100.338V62.5356H79.0822Z" fill="#EDEDEB"/>
<path d="M74.6611 73.0868H79.0779V77.5035H74.6611V73.0868Z" fill="white"/>
<path d="M83.2188 73.0868H87.6352V77.5035H83.2188V73.0868Z" fill="white"/>
<path d="M91.7764 73.0868H96.1928V77.5035H91.7764V73.0868Z" fill="white"/>
<path d="M100.338 73.0868H104.755V77.5035H100.338V73.0868Z" fill="white"/>
<path d="M74.6611 81.1153H79.0779V85.532H74.6611V81.1153Z" fill="white"/>
<path d="M83.2188 81.1153H87.6352V85.532H83.2188V81.1153Z" fill="white"/>
<path d="M91.7764 81.1153H96.1928V85.532H91.7764V81.1153Z" fill="white"/>
<path d="M100.338 81.1153H104.755V85.532H100.338V81.1153Z" fill="white"/>
<path d="M74.6611 89.1439H79.0779V93.5606H74.6611V89.1439Z" fill="white"/>
<path d="M83.2188 89.1439H87.6352V93.5606H83.2188V89.1439Z" fill="white"/>
<path d="M91.7764 89.1439H96.1928V93.5606H91.7764V89.1439Z" fill="white"/>
<path d="M83.2188 66.1477H87.6352V70.5641H83.2188V66.1477Z" fill="white"/>
<path d="M91.7764 66.1477H96.1928V70.5641H91.7764V66.1477Z" fill="white"/>
<path d="M100.338 89.1439H104.755V93.5606H100.338V89.1439Z" fill="white"/>
<path d="M74.6611 97.1679H79.0779V101.585H74.6611V97.1679Z" fill="white"/>
<path d="M83.2188 97.1679H87.6352V101.585H83.2188V97.1679Z" fill="white"/>
<path d="M91.7764 97.1679H96.1928V101.585H91.7764V97.1679Z" fill="white"/>
<path d="M100.338 97.1679H104.755V101.585H100.338V97.1679Z" fill="white"/>
<path d="M74.6611 105.196H79.0779V109.613H74.6611V105.196Z" fill="white"/>
<path d="M83.2188 105.196H87.6352V109.613H83.2188V105.196Z" fill="white"/>
<path d="M91.7764 105.196H96.1928V109.613H91.7764V105.196Z" fill="white"/>
<path d="M100.338 109.613H104.755V105.197H100.338V109.613Z" fill="white"/>
<path d="M74.6611 117.642H79.0779V113.225H74.6611V117.642Z" fill="white"/>
<path d="M83.2188 117.642H87.6352V113.225H83.2188V117.642Z" fill="white"/>
<path d="M91.7764 117.642H96.1929V113.225H91.7764V117.642Z" fill="white"/>
<path d="M100.338 117.642H104.755V113.225H100.338V117.642Z" fill="white"/>
<path d="M74.6611 125.67H79.0779V121.254H74.6611V125.67Z" fill="white"/>
<path d="M83.2188 125.67H87.6352V121.254H83.2188V125.67Z" fill="white"/>
<path d="M91.7764 125.67H96.1929V121.254H91.7764V125.67Z" fill="white"/>
<path d="M100.338 125.67H104.755V121.254H100.338V125.67Z" fill="white"/>
<path d="M107.675 70.9213H71.7408V70.0218H107.675V70.9213Z" fill="#EDEDEB"/>
<path d="M101.237 62.5401H78.1782V61.6406H101.237V62.5401Z" fill="#EDEDEB"/>
<path d="M48.3424 96.0016H26.5078V130.295H61.3525V80.7896L48.3424 96.0016Z" fill="#EDEDEB"/>
<path d="M61.3525 130.295H67.8576V80.7942H61.3522L61.3525 130.295Z" fill="#DADBD8"/>
<path d="M28.1305 108.135H33.3158V102.95H28.1305V108.135Z" fill="#DADBD8"/>
<path d="M33.3203 108.135H28.7091H33.3158V102.95L33.3203 102.95V108.135Z" fill="#F3F2F1"/>
<path d="M28.7091 108.135H33.3158V102.95H28.7091V108.135Z" fill="#E5E5E3"/>
<path d="M28.1305 116.86H33.3158V111.674H28.1305V116.86Z" fill="#DADBD8"/>
<path d="M33.3203 116.86H28.7091H33.3158V111.674L33.3203 111.675V116.86Z" fill="#F3F2F1"/>
<path d="M28.7091 116.86H33.3158V111.674H28.7091V116.86Z" fill="#E5E5E3"/>
<path d="M28.1305 125.585H33.3158V120.399H28.1305V125.585Z" fill="#DADBD8"/>
<path d="M33.3203 123.139V120.399H33.8942V122.804C33.7003 122.914 33.509 123.026 33.3203 123.139Z" fill="#F0F0EE"/>
<path d="M33.3155 123.142L33.3158 120.399L33.3203 120.399V123.139C33.319 123.14 33.3168 123.141 33.3155 123.142Z" fill="#F6F6F4"/>
<path d="M29.8563 125.585H28.7091V120.399H33.3158L33.3155 123.142C32.0267 123.913 30.8611 124.727 29.8563 125.585Z" fill="#EAEAE7"/>
<path d="M36.8731 108.135H42.0583V102.95H36.8731V108.135Z" fill="#DADBD8"/>
<path d="M42.063 108.135H37.4521H42.0583V102.95L42.063 102.95V108.135Z" fill="#F3F2F1"/>
<path d="M37.4521 108.135H42.0583V102.95H37.4521V108.135Z" fill="#E5E5E3"/>
<path d="M36.8731 116.86H42.0583V111.674H36.8731V116.86Z" fill="#DADBD8"/>
<path d="M42.063 116.86H37.4521H42.0583V111.674L42.063 111.675V116.86Z" fill="#F3F2F1"/>
<path d="M37.4521 116.86H42.0583V111.674H37.4521V116.86Z" fill="#E5E5E3"/>
<path d="M36.8731 125.585H42.0583V120.399H36.8731V125.585Z" fill="#DADBD8"/>
<path d="M37.4521 120.989V120.399H38.7879C38.3357 120.592 37.8903 120.789 37.4521 120.989Z" fill="#EAEAE7"/>
<path d="M45.6161 108.135H50.8012V102.95H45.6161V108.135Z" fill="#DADBD8"/>
<path d="M50.8062 108.135H48.2286H50.8012V102.95L50.8062 102.95V108.135Z" fill="#F3F2F1"/>
<path d="M50.8012 108.135H48.2286L48.2283 102.95L50.8012 102.95V108.135ZM46.7861 108.135H46.1946V102.95H46.7861V108.135Z" fill="#E5E5E3"/>
<path d="M45.6161 116.86H50.8012V111.674H45.6161V116.86Z" fill="#DADBD8"/>
<path d="M50.8016 116.413L50.8012 111.674L50.8061 111.675V116.412C50.8045 116.412 50.8032 116.413 50.8016 116.413Z" fill="#F3F2F1"/>
<path d="M49.1288 116.86H48.2286V111.675L50.8012 111.674L50.8016 116.413C50.2452 116.557 49.6874 116.706 49.1288 116.86Z" fill="#E5E5E3"/>
<path d="M46.1946 116.86H46.7861V111.674H46.1946V116.86Z" fill="#E5E5E3"/>
<path d="M45.6161 125.585H50.8012V120.399H45.6161V125.585Z" fill="#DADBD8"/>
<path d="M54.3591 108.135H59.5442V102.95H54.3591V108.135Z" fill="#DADBD8"/>
<path d="M59.5486 108.135H54.9376H59.5442V102.95L59.5486 102.95V108.135Z" fill="#F3F2F1"/>
<path d="M54.9376 108.135H59.5442V102.95H54.9376V108.135Z" fill="#E5E5E3"/>
<path d="M54.3591 116.86H59.5442V111.674H54.3591V116.86Z" fill="#DADBD8"/>
<path d="M59.5441 114.526L59.5442 111.674L59.5487 111.675V114.525C59.547 114.525 59.5457 114.526 59.5441 114.526Z" fill="#F3F2F1"/>
<path d="M54.9376 115.429V111.675L59.5442 111.674L59.5441 114.526C58.0827 114.779 56.535 115.08 54.9376 115.429Z" fill="#E5E5E3"/>
<path d="M54.3591 125.585H59.5442V120.399H54.3591V125.585Z" fill="#DADBD8"/>
<path d="M207.41 150.897C207.41 151.999 169.171 152.892 122 152.892C74.8293 152.892 36.59 151.999 36.59 150.897C36.59 149.795 74.8293 148.902 122 148.902C169.171 148.902 207.41 149.795 207.41 150.897Z" fill="#F3F2F1"/>
<path d="M64.8273 37.6853C60.2187 38.282 53.1941 39.8192 47.6972 42.7036V43.7886C47.6972 43.7886 55.2921 39.3865 64.8667 38.5933L64.8273 37.6853Z" fill="#406FBF"/>
<path d="M72.8682 39.3142C72.5734 39.0579 72.2419 38.847 71.885 38.6883C71.0915 38.3603 66.2896 39.065 64.6473 39.3243V38.6258L64.6047 37.7149C65.7226 37.6 66.7256 37.5181 67.5548 37.4657C68.9382 37.3902 69.9607 37.3443 70.7213 37.3212C71.8515 37.2666 72.8119 38.1385 72.8666 39.2687L72.8682 39.3142Z" fill="#406FBF"/>
<path d="M59.0261 39.0455H59.7734V42.3135H59.0261V39.0455Z" fill="#17282F"/>
<path d="M47.6973 50.4035C47.3723 50.3908 47.1166 50.1221 47.1202 49.7971C47.1202 49.502 47.1202 48.8891 50.2014 46.1062C50.6338 45.7041 51.0938 45.3329 51.5782 44.9949C55.6689 42.2022 60.6973 41.504 60.9071 41.4777C61.2211 41.4129 61.5279 41.615 61.5923 41.9289C61.657 42.2429 61.455 42.5497 61.141 42.6141L61.061 42.6251C61.0119 42.6251 56.0886 43.3165 52.2305 45.952C51.79 46.2601 51.3716 46.5987 50.9783 46.9647C48.9723 48.7743 48.333 49.6299 48.2709 49.8495C48.2709 50.1553 48.0233 50.4035 47.7171 50.4038L47.6973 50.4035Z" fill="#17282F"/>
<path d="M48.1495 42.5363C48.1928 42.5363 48.2282 42.5718 48.2282 42.615V128.512H46.786V42.615C46.786 42.5718 46.8212 42.5363 46.8645 42.5363H48.1495Z" fill="#17282F"/>
<path d="M73.4552 39.3767V39.4225L66.7322 40.055L65.2376 39.4225V39.3243C66.8763 39.065 71.6818 38.3408 72.475 38.6883C72.8319 38.8474 73.1634 39.0582 73.4584 39.3142L73.4552 39.3767Z" fill="#406FBF"/>
<path d="M66.7322 40.055L65.2376 39.4225V39.3243C66.5695 39.1138 69.9933 38.5956 71.6548 38.5956C72.0374 38.5956 72.3266 38.6232 72.475 38.6883C72.8319 38.8474 73.1634 39.0582 73.4584 39.3142L73.4552 39.3767V39.4225L66.7322 40.055Z" fill="#A4C3E9"/>
<path d="M202.791 39.3386C198.182 39.9353 191.158 41.4725 185.661 44.3569V45.4419C185.661 45.4419 193.256 41.0398 202.83 40.2466L202.791 39.3386Z" fill="#406FBF"/>
<path d="M210.831 40.9676C210.536 40.7112 210.205 40.5004 209.848 40.3416C209.055 40.0137 204.253 40.7187 202.61 40.9777V40.2792L202.568 39.3679C203.686 39.2534 204.689 39.1714 205.518 39.119C206.901 39.0436 207.924 38.9977 208.684 38.9746C209.814 38.9199 210.775 39.7918 210.829 40.922L210.831 40.9676Z" fill="#406FBF"/>
<path d="M196.989 40.6989H197.736V43.9672H196.989V40.6989Z" fill="#17282F"/>
<path d="M185.66 52.0569C185.335 52.0445 185.08 51.7755 185.084 51.4505C185.084 51.1554 185.084 50.5425 188.165 47.7596C188.597 47.3574 189.057 46.9862 189.541 46.6482C193.632 43.8556 198.66 43.1574 198.87 43.131C199.184 43.0666 199.491 43.2683 199.556 43.5823C199.62 43.8962 199.418 44.203 199.104 44.2674L199.024 44.2785C198.975 44.2785 194.052 44.9698 190.194 47.6054C189.753 47.9134 189.335 48.2521 188.941 48.6181C186.935 50.4276 186.296 51.2832 186.234 51.5028C186.234 51.809 185.986 52.0569 185.68 52.0572L185.66 52.0569Z" fill="#17282F"/>
<path d="M186.113 44.1897C186.157 44.1897 186.192 44.2251 186.192 44.2687V130.166H184.749V44.2687C184.749 44.2251 184.785 44.1897 184.828 44.1897H186.113Z" fill="#17282F"/>
<path d="M211.418 41.03V41.0759L204.695 41.7084L203.201 41.0759V40.9777C204.84 40.7187 209.645 39.9942 210.438 40.3416C210.795 40.5007 211.126 40.7119 211.421 40.9676L211.418 41.03Z" fill="#406FBF"/>
<path d="M204.695 41.7084L203.201 41.0759V40.9777C204.532 40.7672 207.957 40.2489 209.618 40.2489C210.001 40.2489 210.29 40.2766 210.438 40.3416C210.795 40.5007 211.126 40.7119 211.421 40.9676L211.418 41.03V41.0759L204.695 41.7084Z" fill="#A4C3E9"/>
<path d="M157.641 141.725L159.546 124.666L170.77 116.831H183.07L197.451 126.271L198.086 141.725L194.857 142.819L157.641 144.689V141.725Z" fill="#406FBF"/>
<path d="M162.273 144.456V135.131H162.29C162.471 126.603 169.428 119.742 178 119.742C186.571 119.742 193.528 126.603 193.709 135.131H193.726V142.875L191.005 143.012C194.248 137.276 193.421 129.87 188.526 124.985C185.581 122.047 181.721 120.578 177.861 120.578C174.002 120.578 170.142 122.047 167.197 124.985C161.928 130.242 161.372 138.42 165.53 144.293L162.273 144.456Z" fill="#2251AA"/>
<path d="M188.526 146.266C182.636 152.142 173.087 152.142 167.197 146.266C161.308 140.389 161.307 130.862 167.197 124.985C173.087 119.109 182.636 119.109 188.526 124.985C194.416 130.862 194.416 140.389 188.526 146.266Z" fill="#17282F"/>
<path d="M177.861 144.851C175.495 144.851 173.129 143.95 171.324 142.149C167.713 138.546 167.713 132.705 171.324 129.102C173.129 127.301 175.495 126.4 177.861 126.4C180.228 126.4 182.594 127.301 184.4 129.102C188.011 132.705 188.011 138.546 184.4 142.149C182.594 143.95 180.228 144.851 177.861 144.851ZM177.857 137.721C177.45 137.721 177.119 138.051 177.119 138.458V143.187C177.119 143.594 177.45 143.923 177.857 143.923H177.862C178.27 143.923 178.6 143.594 178.6 143.187V138.458C178.6 138.051 178.27 137.721 177.862 137.721H177.857ZM180.321 136.29C180.067 136.29 179.819 136.421 179.682 136.656C179.476 137.009 179.595 137.462 179.949 137.668L184.055 140.045C184.171 140.112 184.298 140.144 184.424 140.144C184.679 140.144 184.927 140.012 185.064 139.776L185.065 139.774C185.269 139.422 185.148 138.971 184.795 138.768L184.793 138.766L180.692 136.39C180.575 136.322 180.447 136.29 180.321 136.29ZM175.4 136.27C175.273 136.27 175.145 136.303 175.028 136.371L170.926 138.747C170.572 138.95 170.45 139.4 170.653 139.753L170.655 139.755C170.792 139.992 171.042 140.125 171.299 140.125C171.424 140.125 171.552 140.093 171.669 140.026L175.771 137.649C176.126 137.445 176.247 136.992 176.042 136.637C175.904 136.401 175.656 136.27 175.4 136.27ZM171.299 131.091C171.042 131.091 170.792 131.224 170.655 131.461C170.45 131.813 170.571 132.264 170.924 132.468L170.926 132.469L175.028 134.845C175.145 134.914 175.273 134.946 175.4 134.946C175.654 134.946 175.901 134.816 176.038 134.582L176.042 134.574C176.247 134.222 176.126 133.771 175.773 133.568L175.771 133.567L171.669 131.19C171.552 131.123 171.424 131.091 171.299 131.091ZM184.424 131.091C184.299 131.091 184.173 131.123 184.057 131.189L184.055 131.19L179.949 133.567C179.596 133.771 179.476 134.222 179.681 134.574C179.816 134.812 180.065 134.946 180.321 134.946C180.443 134.946 180.567 134.915 180.681 134.851L184.793 132.469C185.147 132.266 185.269 131.816 185.066 131.463L185.065 131.461C184.928 131.224 184.679 131.091 184.424 131.091ZM177.857 127.326C177.45 127.326 177.119 127.656 177.119 128.063V132.792C177.119 133.199 177.45 133.529 177.857 133.529H177.862C178.27 133.529 178.6 133.199 178.6 132.792V128.063C178.6 127.656 178.27 127.326 177.862 127.326H177.857Z" fill="#6C7A7F"/>
<path d="M177.862 133.529H177.857C177.45 133.529 177.119 133.199 177.119 132.792V128.063C177.119 127.656 177.45 127.326 177.857 127.326H177.862C178.27 127.326 178.6 127.656 178.6 128.063V132.792C178.6 133.199 178.27 133.529 177.862 133.529Z" fill="#96A1A2"/>
<path d="M177.862 143.923H177.857C177.45 143.923 177.119 143.594 177.119 143.187V138.458C177.119 138.051 177.45 137.721 177.857 137.721H177.862C178.27 137.721 178.6 138.051 178.6 138.458V143.187C178.6 143.594 178.27 143.923 177.862 143.923Z" fill="#96A1A2"/>
<path d="M180.321 134.946C180.065 134.946 179.816 134.812 179.681 134.574C179.476 134.222 179.596 133.771 179.949 133.567L184.055 131.19L184.057 131.189C184.173 131.123 184.299 131.091 184.424 131.091C184.679 131.091 184.928 131.224 185.065 131.461L185.066 131.463C185.269 131.816 185.147 132.266 184.793 132.469L180.681 134.851C180.567 134.915 180.443 134.946 180.321 134.946Z" fill="#96A1A2"/>
<path d="M171.299 140.125C171.042 140.125 170.792 139.992 170.655 139.755L170.653 139.753C170.45 139.4 170.572 138.95 170.926 138.747L175.028 136.371C175.145 136.303 175.273 136.27 175.4 136.27C175.656 136.27 175.904 136.401 176.042 136.637C176.247 136.992 176.126 137.445 175.771 137.649L171.669 140.026C171.552 140.093 171.424 140.125 171.299 140.125Z" fill="#96A1A2"/>
<path d="M184.424 140.144C184.298 140.144 184.171 140.112 184.055 140.045L179.949 137.668C179.595 137.462 179.476 137.009 179.682 136.656C179.819 136.421 180.067 136.29 180.321 136.29C180.447 136.29 180.575 136.322 180.692 136.39L184.793 138.766L184.795 138.768C185.148 138.971 185.269 139.422 185.065 139.774L185.064 139.776C184.927 140.012 184.679 140.144 184.424 140.144Z" fill="#96A1A2"/>
<path d="M175.4 134.946C175.273 134.946 175.145 134.914 175.028 134.845L170.926 132.469L170.924 132.468C170.571 132.264 170.45 131.813 170.655 131.461C170.792 131.224 171.042 131.091 171.299 131.091C171.424 131.091 171.552 131.123 171.669 131.19L175.771 133.567L175.773 133.568C176.126 133.771 176.247 134.222 176.042 134.574L176.038 134.582C175.901 134.816 175.654 134.946 175.4 134.946Z" fill="#96A1A2"/>
<path d="M177.862 134.384C178.549 134.384 179.105 134.94 179.105 135.625C179.105 136.31 178.549 136.865 177.862 136.865C177.175 136.865 176.619 136.31 176.619 135.625C176.619 134.94 177.175 134.384 177.862 134.384Z" fill="#17282F"/>
<path d="M44.0058 141.948L45.9116 124.89L57.1346 117.055H69.4348L83.8158 126.494L84.4512 141.948V144.913H44.0058V141.948Z" fill="#406FBF"/>
<path d="M79.6375 144.913H76.2677C80.7374 139.016 80.2787 130.584 74.8909 125.209C71.946 122.271 68.0862 120.801 64.2264 120.801C60.3667 120.801 56.5069 122.271 53.562 125.209C48.1742 130.584 47.7155 139.016 52.1852 144.913H48.1852V140.223V135.131H48.2022C48.3834 126.603 55.3396 119.742 63.9115 119.742C72.4831 119.742 79.4394 126.603 79.6206 135.131H79.6375V144.913Z" fill="#254583"/>
<path d="M80.0501 114.067C80.0501 114.067 91.8828 106.754 102.75 103.707C113.618 100.66 122.153 98.1501 122.153 98.1501L93.1523 115.286L80.0501 114.067Z" fill="#17282F"/>
<path d="M205.742 113.789L208.559 110.971L208.446 109.619H196.501C196.501 109.619 164.27 96.3208 137.562 96.3208C110.854 96.3208 89.8924 113.45 89.8924 113.45L81.3277 113C81.3277 113 69.1986 113.154 62.8461 114.014C52.0275 115.479 33.2076 120.325 27.573 127.988C27.573 127.988 30.7283 141.173 38.166 146.244H48.1856L48.1852 135.131H48.2022C48.3834 126.603 55.3396 119.742 63.9115 119.742C72.4831 119.742 79.4394 126.603 79.6206 135.131H79.6375L79.6379 146.244H162.274L162.273 135.131H162.29C162.471 126.603 169.428 119.742 178 119.742C186.571 119.742 193.528 126.603 193.709 135.131H193.726L193.726 143.71C199.012 142.979 203.713 142.068 206.531 140.948C206.531 140.948 212.729 133.961 213.067 130.354L205.742 113.789Z" fill="#406FBF"/>
<path d="M27.8025 128.852C27.6563 128.332 27.5816 128.025 27.5749 127.997C27.5881 128.051 27.6629 128.356 27.8025 128.852Z" fill="#9B9D9D"/>
<path d="M85.2851 140.881C83.4086 140.881 81.5216 140.874 79.6376 140.861L79.6375 135.131H79.6206C79.4394 126.603 72.4831 119.742 63.9115 119.742C55.3396 119.742 48.3834 126.603 48.2022 135.131H48.1852V140.223C41.0543 139.996 35.3946 139.765 32.3374 139.634C29.7859 135.366 28.3296 130.728 27.8025 128.852C27.6629 128.356 27.5881 128.051 27.5749 127.997L35.1346 129.389C35.1346 129.389 35.1376 129.387 35.1428 129.382L35.1467 129.383C35.1467 129.383 38.2269 126.763 43.7042 123.953C48.6516 121.416 55.5509 118.727 63.8993 117.674C71.6266 116.7 80.7376 116.067 89.572 115.688C91.2253 115.995 92.9301 116.308 94.6635 116.616L88.245 123.817V138.328L88.2843 138.329C88.2846 138.329 92.5449 138.476 98.7854 138.476C105.936 138.476 115.687 138.284 124.61 137.456C133.533 136.627 141.625 135.167 145.472 132.619L145.479 132.615L145.484 132.607C145.484 132.606 147.407 129.456 149.397 125.974C151.269 122.697 153.199 119.134 153.646 117.605C160.396 117.055 165.263 116.626 165.263 116.626C155.186 134.639 146.338 136.464 120.308 139.522C111.631 140.541 98.6882 140.881 85.2851 140.881ZM98.7854 138.395C95.6658 138.395 93.041 138.358 91.1964 138.322C90.2741 138.303 89.5466 138.285 89.0498 138.271C88.6633 138.26 88.4171 138.252 88.3263 138.249V123.848L94.7575 116.633C103.999 118.277 114.021 119.796 121.161 119.796C121.882 119.796 122.575 119.781 123.234 119.748C131.838 119.324 144.409 118.358 153.559 117.613C153.104 119.132 151.186 122.682 149.327 125.934C148.332 127.674 147.354 129.332 146.624 130.555C146.26 131.166 145.957 131.668 145.746 132.018C145.559 132.328 145.443 132.517 145.419 132.557C141.599 135.084 133.514 136.548 124.602 137.375C115.684 138.202 105.935 138.395 98.7854 138.395Z" fill="#2D5BB2"/>
<path d="M96.9412 114.123L96.911 114.096L88.245 123.817V138.328L88.2843 138.329C88.2846 138.329 92.5449 138.476 98.7854 138.476C105.936 138.476 115.687 138.284 124.61 137.456C133.533 136.627 141.625 135.167 145.472 132.619L145.479 132.615L145.484 132.607C145.484 132.606 147.407 129.456 149.397 125.974C151.387 122.49 153.442 118.683 153.712 117.341C154.243 114.687 154.764 111.35 154.764 111.35L154.772 111.3L96.9224 114.083L96.911 114.096L96.9412 114.123L96.9432 114.163L154.726 111.384L154.724 111.343L154.684 111.337C154.684 111.338 154.651 111.545 154.594 111.9C154.423 112.963 154.03 115.337 153.633 117.325C153.372 118.636 151.315 122.455 149.327 125.934C148.332 127.674 147.354 129.332 146.624 130.555C146.26 131.166 145.957 131.668 145.746 132.018C145.535 132.368 145.415 132.564 145.415 132.565L145.449 132.586L145.427 132.552C141.61 135.083 133.52 136.548 124.602 137.375C115.684 138.202 105.935 138.395 98.7854 138.395C95.6658 138.395 93.041 138.358 91.1964 138.322C90.2741 138.303 89.5466 138.285 89.0498 138.271C88.5531 138.257 88.288 138.248 88.287 138.248L88.2857 138.289H88.3264L88.3263 123.848L96.9715 114.15L96.9412 114.123Z" fill="#17282F"/>
<path d="M28.4336 130.905C28.4336 130.905 31.6176 129.312 34.2792 134.015C36.9411 138.717 36.6821 139.813 36.6821 139.813L32.3374 139.634C30.8828 137.203 29.598 134.243 28.4336 130.905Z" fill="#17282F"/>
<path d="M205.889 114.123H198.086C198.086 114.123 199.256 117.777 201.988 119.203C204.719 120.63 208.316 119.611 208.446 119.905C208.576 120.199 205.889 114.123 205.889 114.123Z" fill="#F03F4E"/>
<path d="M35.1428 129.382L27.573 127.988C33.2076 120.325 52.0275 115.479 62.8461 114.014C69.1986 113.154 81.3277 113 81.3277 113L89.8924 113.45L98.381 113.088C97.6282 113.609 97.1552 113.961 96.9987 114.079L96.9224 114.083L96.911 114.096L95.6983 115.456C85.0752 115.784 73.44 116.466 63.9119 117.668C55.5571 118.721 48.6522 121.414 43.7042 123.953C38.3834 126.681 35.321 129.232 35.1428 129.382ZM95.8102 115.453L96.9603 114.162L102.575 113.892C112.752 113.469 134.685 112.52 151.298 111.549L152.975 111.468L152.967 111.514L154.058 111.416L154.676 111.386C154.663 111.468 154.635 111.646 154.594 111.9C154.532 112.286 154.44 112.845 154.33 113.496C139.132 114.496 125.216 115.296 119.607 115.296C119.249 115.296 118.923 115.293 118.635 115.286C116.496 115.236 113.984 115.209 111.198 115.209C106.646 115.209 101.369 115.282 95.8102 115.453ZM154.413 113.491C154.616 112.292 154.755 111.409 154.764 111.352L155.171 111.316C162.747 110.846 168.758 110.38 171.264 109.976L196.501 109.619H208.446C208.446 109.619 179.68 111.829 154.413 113.491Z" fill="#6D97D6"/>
<path d="M35.1467 129.383L35.1428 129.382C35.321 129.232 38.3834 126.681 43.7042 123.953C38.2269 126.763 35.1467 129.383 35.1467 129.383Z" fill="#5E85CC"/>
<path d="M95.6983 115.456L96.911 114.096L96.9224 114.083L96.9987 114.079C96.9606 114.108 96.9412 114.123 96.9412 114.123C96.9412 114.123 99.0557 114.039 102.575 113.892L96.9603 114.162L95.8102 115.453C95.7731 115.454 95.7354 115.455 95.6983 115.456ZM154.33 113.496C154.44 112.845 154.532 112.286 154.594 111.9C154.635 111.646 154.663 111.468 154.676 111.386L154.058 111.416L154.764 111.352C154.755 111.409 154.616 112.292 154.413 113.491C154.386 113.493 154.358 113.494 154.33 113.496ZM151.298 111.549C151.863 111.516 152.424 111.483 152.977 111.449L152.975 111.468L151.298 111.549Z" fill="#57666B"/>
<path d="M193.726 143.71L193.726 136.056C193.726 136.056 206.303 134.253 212.959 130.946C212.098 134.652 206.589 140.882 206.531 140.948C203.713 142.068 199.012 142.979 193.726 143.71Z" fill="#2D5BB2"/>
<path d="M31.0347 127.384C31.0347 127.384 34.1417 128.112 34.724 127.918C35.3067 127.724 38.4621 125.151 38.4621 125.151C38.4621 125.151 33.9475 124.277 31.0347 127.384Z" fill="white"/>
<path d="M74.8913 146.489C69.0014 152.366 59.4522 152.366 53.5624 146.489C47.6726 140.613 47.6722 131.085 53.562 125.209C59.4519 119.332 69.001 119.332 74.8909 125.209C80.7807 131.085 80.7811 140.613 74.8913 146.489Z" fill="#17282F"/>
<path d="M64.2264 145.075C61.86 145.075 59.4938 144.174 57.6882 142.372C54.0773 138.77 54.0773 132.929 57.6882 129.326C59.4938 127.524 61.86 126.624 64.2264 126.624C66.5926 126.624 68.9591 127.524 70.7647 129.326C74.3752 132.929 74.3752 138.77 70.7647 142.372C68.9591 144.174 66.5926 145.075 64.2264 145.075ZM64.2222 137.944C63.8142 137.944 63.4837 138.274 63.4837 138.681V143.41C63.4837 143.817 63.8142 144.147 64.2222 144.147H64.2271C64.6347 144.147 64.9653 143.817 64.9653 143.41V138.681C64.9653 138.274 64.6347 137.944 64.2271 137.944H64.2222ZM66.6856 136.513C66.4316 136.513 66.184 136.644 66.0467 136.879C65.8407 137.232 65.9601 137.685 66.3135 137.892L70.4195 140.268C70.536 140.335 70.6632 140.367 70.7884 140.367C71.0435 140.367 71.2917 140.236 71.4283 139.999L71.4296 139.997C71.6336 139.645 71.5129 139.194 71.16 138.991L71.158 138.99L67.0565 136.613C66.9397 136.545 66.8119 136.513 66.6856 136.513ZM61.7653 136.494C61.6384 136.494 61.5099 136.526 61.3925 136.594L57.291 138.971C56.9374 139.173 56.8154 139.624 57.0184 139.977L57.0197 139.978C57.1573 140.216 57.4068 140.349 57.6635 140.349C57.7894 140.349 57.9173 140.317 58.034 140.249L62.1355 137.873C62.4908 137.668 62.6121 137.215 62.4072 136.86C62.2689 136.625 62.0204 136.494 61.7653 136.494ZM57.6635 131.314C57.4068 131.314 57.1573 131.447 57.0197 131.685C56.8154 132.037 56.936 132.487 57.289 132.691L57.291 132.692L61.3925 135.069C61.5099 135.137 61.6381 135.17 61.765 135.17C62.0184 135.17 62.2653 135.039 62.403 134.805L62.4072 134.798C62.6112 134.446 62.4905 133.995 62.1375 133.791L62.1359 133.79L58.034 131.414C57.9173 131.346 57.7894 131.314 57.6635 131.314ZM70.7884 131.315C70.6638 131.315 70.5373 131.346 70.4214 131.413L70.4195 131.414L66.3135 133.79C65.9608 133.995 65.8414 134.446 66.0464 134.797C66.1814 135.035 66.4299 135.17 66.686 135.17C66.8083 135.17 66.9322 135.139 67.0464 135.074L67.0565 135.069L71.158 132.692C71.5116 132.49 71.6336 132.039 71.4306 131.686L71.4296 131.685C71.293 131.447 71.0445 131.315 70.7884 131.315ZM64.2222 127.549C63.8142 127.549 63.4837 127.879 63.4837 128.286V133.015C63.4837 133.422 63.8142 133.752 64.2222 133.752H64.2271C64.6347 133.752 64.9653 133.422 64.9653 133.015V128.286C64.9653 127.879 64.6347 127.549 64.2271 127.549H64.2222Z" fill="#6C7A7F"/>
<path d="M64.2271 133.752H64.2222C63.8142 133.752 63.4837 133.422 63.4837 133.015V128.286C63.4837 127.879 63.8142 127.549 64.2222 127.549H64.2271C64.6347 127.549 64.9653 127.879 64.9653 128.286V133.015C64.9653 133.422 64.6347 133.752 64.2271 133.752Z" fill="#96A1A2"/>
<path d="M64.2271 144.147H64.2222C63.8142 144.147 63.4837 143.817 63.4837 143.41V138.681C63.4837 138.274 63.8142 137.944 64.2222 137.944H64.2271C64.6347 137.944 64.9653 138.274 64.9653 138.681V143.41C64.9653 143.817 64.6347 144.147 64.2271 144.147Z" fill="#96A1A2"/>
<path d="M66.686 135.17C66.4299 135.17 66.1814 135.035 66.0464 134.797C65.8414 134.446 65.9608 133.995 66.3135 133.79L70.4195 131.414L70.4214 131.413C70.5373 131.346 70.6638 131.315 70.7884 131.315C71.0445 131.315 71.293 131.447 71.4296 131.685L71.4306 131.686C71.6336 132.039 71.5116 132.49 71.158 132.692L67.0565 135.069L67.0464 135.074C66.9322 135.139 66.8083 135.17 66.686 135.17Z" fill="#96A1A2"/>
<path d="M57.6635 140.349C57.4068 140.349 57.1573 140.216 57.0197 139.978L57.0184 139.977C56.8154 139.624 56.9374 139.173 57.291 138.971L61.3925 136.594C61.5099 136.526 61.6384 136.494 61.7653 136.494C62.0204 136.494 62.2689 136.625 62.4072 136.86C62.6121 137.215 62.4908 137.668 62.1355 137.873L58.034 140.249C57.9173 140.317 57.7894 140.349 57.6635 140.349Z" fill="#96A1A2"/>
<path d="M70.7884 140.367C70.6632 140.367 70.536 140.335 70.4195 140.268L66.3135 137.892C65.9601 137.685 65.8407 137.232 66.0467 136.879C66.184 136.644 66.4316 136.513 66.6856 136.513C66.8119 136.513 66.9397 136.545 67.0565 136.613L71.158 138.99L71.16 138.991C71.5129 139.194 71.6336 139.645 71.4296 139.997L71.4283 139.999C71.2917 140.236 71.0435 140.367 70.7884 140.367Z" fill="#96A1A2"/>
<path d="M61.765 135.17C61.6381 135.17 61.5099 135.137 61.3925 135.069L57.291 132.692L57.289 132.691C56.936 132.487 56.8154 132.037 57.0197 131.685C57.1573 131.447 57.4068 131.314 57.6635 131.314C57.7894 131.314 57.9173 131.346 58.034 131.414L62.1359 133.79L62.1375 133.791C62.4905 133.995 62.6112 134.446 62.4072 134.798L62.403 134.805C62.2653 135.039 62.0184 135.17 61.765 135.17Z" fill="#96A1A2"/>
<path d="M64.227 134.608C64.9138 134.608 65.4705 135.163 65.4705 135.848C65.4705 136.533 64.9138 137.089 64.227 137.089C63.5406 137.089 62.9839 136.533 62.9839 135.848C62.9839 135.163 63.5406 134.608 64.227 134.608Z" fill="#17282F"/>
<path d="M162.274 146.244H79.6379L79.6379 144.586C79.6379 144.586 89.9685 144.743 103.518 144.743C123.846 144.743 151.424 144.39 162.274 142.621L162.274 146.244Z" fill="#254583"/>
<path d="M38.166 146.244C37.7187 145.971 36.8766 145.286 36.5509 144.963C37.0653 145.43 37.6032 145.861 38.166 146.244Z" fill="#6F7475"/>
<path d="M48.1856 146.244H38.166C37.6032 145.861 37.0653 145.43 36.5509 144.963C36.5327 144.945 36.516 144.928 36.5014 144.913L48.1854 145.075L48.1856 146.244Z" fill="#254583"/>
<path d="M96.9412 114.123C96.9412 114.123 161.376 111.571 171.264 109.976L172.699 107.067C172.699 107.067 158.095 98.7302 136.814 99.2901C115.533 99.85 96.9412 114.123 96.9412 114.123Z" fill="#17282F"/>
<path d="M152.967 111.514L152.975 111.468L154.058 111.416L152.967 111.514ZM154.764 111.352C154.764 111.351 154.764 111.35 154.764 111.35L154.765 111.341C154.901 111.333 155.036 111.324 155.171 111.316L154.764 111.352Z" fill="#4971BF"/>
<path d="M152.975 111.468L152.977 111.449C153.567 111.414 154.15 111.379 154.724 111.343L154.764 111.35C154.764 111.35 154.764 111.351 154.764 111.352L154.058 111.416L152.975 111.468Z" fill="#394247"/>
<path d="M157.923 101.604C157.895 101.597 157.867 101.59 157.839 101.583L157.923 101.602V101.604ZM154.607 100.854C154.606 100.854 154.605 100.854 154.605 100.854L154.607 100.854Z" fill="#2D5BB2"/>
<path d="M152.977 111.449L153.567 107.61L155.297 107.56L154.684 111.337L154.724 111.343C154.15 111.379 153.567 111.414 152.977 111.449ZM154.765 111.341L155.379 107.558L157.397 107.501L157.073 111.145L155.171 111.316C155.036 111.324 154.901 111.333 154.765 111.341ZM157.825 102.698C157.304 102.562 156.773 102.428 156.233 102.296L156.398 101.281L156.318 101.268L156.154 102.277C155.594 102.142 155.025 102.009 154.447 101.88L154.605 100.854C154.605 100.854 154.606 100.854 154.607 100.854L157.839 101.583C157.867 101.59 157.895 101.597 157.923 101.604L157.825 102.698Z" fill="#0F191D"/>
<path d="M154.764 111.35L156.398 101.281L156.318 101.268L154.684 111.337L154.764 111.35Z" fill="#17282F"/>
<path d="M96.9412 114.123L105.052 108.948L105.687 113.67L96.9412 114.123Z" fill="#0F191D"/>
<path d="M103.576 110.565C103.576 110.565 98.4913 111.421 98.9471 114.886C99.4032 118.35 106.192 116.676 106.33 116.47C106.33 116.47 105.995 111.87 103.576 110.565Z" fill="#406FBF"/>
<path d="M103.576 110.565C105.566 111.765 106.09 114.337 106.361 116.482C106.207 116.595 106.055 116.608 105.886 116.665C104.793 116.951 103.661 117.1 102.529 117.091C100.398 117.113 98.3848 116.153 98.9902 113.689C99.5905 111.754 101.762 110.94 103.576 110.565ZM103.576 110.565C101.788 110.97 99.6324 111.791 99.0455 113.705C98.4674 116.134 100.438 117.021 102.53 117.014C103.777 117.03 105.173 116.843 106.301 116.472C106.037 114.341 105.531 111.785 103.576 110.565Z" fill="#17282F"/>
<path d="M106.33 108.948C106.33 108.948 120.35 101.067 136.623 100.13C137.532 100.078 138.445 100.054 139.363 100.054C144.524 100.054 149.759 100.836 154.447 101.88L153.567 107.61L106.33 108.948Z" fill="#405158"/>
<path d="M153.567 107.61L154.447 101.88C155.025 102.009 155.594 102.142 156.154 102.277L155.297 107.56L153.567 107.61Z" fill="#394348"/>
<path d="M157.397 107.501L157.825 102.698C165.51 104.702 171.035 107.114 171.035 107.114L157.397 107.501Z" fill="#405158"/>
<path d="M155.379 107.558L156.233 102.296C156.773 102.428 157.304 102.562 157.825 102.698L157.397 107.501L155.379 107.558Z" fill="#394348"/>
<path d="M155.297 107.56L156.154 102.277C156.18 102.284 156.207 102.29 156.233 102.296L155.379 107.558L155.297 107.56Z" fill="#405158"/>
</svg>
